<svg width="102" height="84" viewBox="0 0 102 84" fill="none" xmlns="http://www.w3.org/2000/svg">
<path d="M50.8651 83.0945L19.0132 65.847L19.5875 57.7811H3.38241L0.869019 40.7696H20.7956L21.5594 29.9731L29.4268 25.7141L30.2283 18.6986L37.2586 12.6135L40.7004 15.5811L41.4701 9.10326L51.365 0.970947L61.2568 9.10326L62.0652 15.839L65.7123 12.6889L72.7486 18.7759L73.6165 26.4252L80.1717 29.9741L80.9414 40.7706H100.869L98.3467 57.7831H82.1426L82.7149 65.848L50.8651 83.0945Z" fill="white"/>
<path d="M50.8651 83.0945L19.0132 65.847L19.5875 57.7811H3.38241L0.869019 40.7696H20.7956L21.5594 29.9731L29.4268 25.7141L30.2283 18.6986L37.2586 12.6135L40.7004 15.5811L41.4701 9.10326L51.365 0.970947L61.2568 9.10326L62.0652 15.839L65.7123 12.6889L72.7486 18.7759L73.6165 26.4252L80.1717 29.9741L80.9414 40.7706H100.869L98.3467 57.7831H82.1426L82.7149 65.848L50.8651 83.0945Z" fill="white"/>
<path d="M50.8651 83.0945L19.0132 65.847L19.5875 57.7811H3.38241L0.869019 40.7696H20.7956L21.5594 29.9731L29.4268 25.7141L30.2283 18.6986L37.2586 12.6135L40.7004 15.5811L41.4701 9.10326L51.365 0.970947L61.2568 9.10326L62.0652 15.839L65.7123 12.6889L72.7486 18.7759L73.6165 26.4252L80.1717 29.9741L80.9414 40.7706H100.869L98.3467 57.7831H82.1426L82.7149 65.848L50.8651 83.0945Z" stroke="#151616" stroke-width="1.5001"/>
<path d="M50.8651 83.0945L19.0132 65.847L19.5875 57.7811H3.38241L0.869019 40.7696H20.7956L21.5594 29.9731L29.4268 25.7141L30.2283 18.6986L37.2586 12.6135L40.7004 15.5811L41.4701 9.10326L51.365 0.970947L61.2568 9.10326L62.0652 15.839L65.7123 12.6889L72.7486 18.7759L73.6165 26.4252L80.1717 29.9741L80.9414 40.7706H100.869L98.3467 57.7831H82.1426L82.7149 65.848L50.8651 83.0945Z" fill="white"/>
<path d="M50.8651 83.0945L19.0132 65.847L19.5875 57.7811H3.38241L0.869019 40.7696H20.7956L21.5594 29.9731L29.4268 25.7141L30.2283 18.6986L37.2586 12.6135L40.7004 15.5811L41.4701 9.10326L51.365 0.970947L61.2568 9.10326L62.0652 15.839L65.7123 12.6889L72.7486 18.7759L73.6165 26.4252L80.1717 29.9741L80.9414 40.7706H100.869L98.3467 57.7831H82.1426L82.7149 65.848L50.8651 83.0945Z" stroke="#151616" stroke-width="1.5001"/>
<path d="M63.2276 66.9351H38.5569V68.5022H63.2276V66.9351Z" fill="#FBCF2D"/>
<path d="M50.8651 83.0945L19.0132 65.847L19.5875 57.7811H3.38241L0.869019 40.7696H20.7956L21.5594 29.9731L29.4268 25.7141L30.2283 18.6986L37.2586 12.6135L40.7004 15.5811L41.4701 9.10326L51.365 0.970947L61.2568 9.10326L62.0652 15.839L65.7123 12.6889L72.7486 18.7759L73.6165 26.4252L80.1717 29.9741L80.9414 40.7706H100.869L98.3467 57.7831H82.1426L82.7149 65.848L50.8651 83.0945Z" fill="white"/>
<path d="M50.8651 83.0945L19.0132 65.847L19.5875 57.7811H3.38241L0.869019 40.7696H20.7956L21.5594 29.9731L29.4268 25.7141L30.2283 18.6986L37.2586 12.6135L40.7004 15.5811L41.4701 9.10326L51.365 0.970947L61.2568 9.10326L62.0652 15.839L65.7123 12.6889L72.7486 18.7759L73.6165 26.4252L80.1717 29.9741L80.9414 40.7706H100.869L98.3467 57.7831H82.1426L82.7149 65.848L50.8651 83.0945Z" stroke="#151616" stroke-width="1.5001"/>
<path d="M63.2276 66.9351H38.5569V68.5022H63.2276V66.9351Z" fill="#FBCF2D"/>
<path d="M37.9361 28.4328L31.8192 31.6861L32.7645 21.1227L37.3241 17.545L43.0779 21.7952L43.4568 25.6843L37.9361 28.4328ZM36.5167 28.1084L32.9599 30.0029L33.7524 21.6444L36.7061 18.8355L36.5167 28.1084Z" fill="#151616"/>
<path d="M50.8651 83.0945L19.0132 65.847L19.5875 57.7811H3.38241L0.869019 40.7696H20.7956L21.5594 29.9731L29.4268 25.7141L30.2283 18.6986L37.2586 12.6135L40.7004 15.5811L41.4701 9.10326L51.365 0.970947L61.2568 9.10326L62.0652 15.839L65.7123 12.6889L72.7486 18.7759L73.6165 26.4252L80.1717 29.9741L80.9414 40.7706H100.869L98.3467 57.7831H82.1426L82.7149 65.848L50.8651 83.0945Z" fill="white"/>
<path d="M50.8651 83.0945L19.0132 65.847L19.5875 57.7811H3.38241L0.869019 40.7696H20.7956L21.5594 29.9731L29.4268 25.7141L30.2283 18.6986L37.2586 12.6135L40.7004 15.5811L41.4701 9.10326L51.365 0.970947L61.2568 9.10326L62.0652 15.839L65.7123 12.6889L72.7486 18.7759L73.6165 26.4252L80.1717 29.9741L80.9414 40.7706H100.869L98.3467 57.7831H82.1426L82.7149 65.848L50.8651 83.0945Z" stroke="#151616" stroke-width="1.5001"/>
<path d="M63.2276 66.9351H38.5569V68.5022H63.2276V66.9351Z" fill="#FBCF2D"/>
<path d="M37.9361 28.4328L31.8192 31.6861L32.7645 21.1227L37.3241 17.545L43.0779 21.7952L43.4568 25.6843L37.9361 28.4328ZM36.5167 28.1084L32.9599 30.0029L33.7524 21.6444L36.7061 18.8355L36.5167 28.1084Z" fill="#151616"/>
<path d="M65.4821 28.9842L60.0824 26.825L60.6408 20.4363L65.1945 16.8567L70.9473 21.1088L71.9372 31.212L65.4821 28.9842ZM64.3881 27.4131L61.231 25.1338L61.6238 20.9501L64.5775 18.1471L64.3881 27.4131Z" fill="#151616"/>
<path d="M50.8651 83.0945L19.0132 65.847L19.5875 57.7811H3.38241L0.869019 40.7696H20.7956L21.5594 29.9731L29.4268 25.7141L30.2283 18.6986L37.2586 12.6135L40.7004 15.5811L41.4701 9.10326L51.365 0.970947L61.2568 9.10326L62.0652 15.839L65.7123 12.6889L72.7486 18.7759L73.6165 26.4252L80.1717 29.9741L80.9414 40.7706H100.869L98.3467 57.7831H82.1426L82.7149 65.848L50.8651 83.0945Z" fill="white"/>
<path d="M50.8651 83.0945L19.0132 65.847L19.5875 57.7811H3.38241L0.869019 40.7696H20.7956L21.5594 29.9731L29.4268 25.7141L30.2283 18.6986L37.2586 12.6135L40.7004 15.5811L41.4701 9.10326L51.365 0.970947L61.2568 9.10326L62.0652 15.839L65.7123 12.6889L72.7486 18.7759L73.6165 26.4252L80.1717 29.9741L80.9414 40.7706H100.869L98.3467 57.7831H82.1426L82.7149 65.848L50.8651 83.0945Z" stroke="#151616" stroke-width="1.5001"/>
<path d="M63.2276 66.9351H38.5569V68.5022H63.2276V66.9351Z" fill="#FBCF2D"/>
<path d="M37.9361 28.4328L31.8192 31.6861L32.7645 21.1227L37.3241 17.545L43.0779 21.7952L43.4568 25.6843L37.9361 28.4328ZM36.5167 28.1084L32.9599 30.0029L33.7524 21.6444L36.7061 18.8355L36.5167 28.1084Z" fill="#151616"/>
<path d="M65.4821 28.9842L60.0824 26.825L60.6408 20.4363L65.1945 16.8567L70.9473 21.1088L71.9372 31.212L65.4821 28.9842ZM64.3881 27.4131L61.231 25.1338L61.6238 20.9501L64.5775 18.1471L64.3881 27.4131Z" fill="#151616"/>
<path d="M51.3759 22.92L43.1473 25.7885L44.4993 10.7785L50.9702 5.68927L59.1402 11.7297L60.5526 26.092L51.3759 22.92ZM49.8226 20.6942L44.776 23.3881L45.8958 11.5115L50.0914 7.53117L49.8226 20.6942Z" fill="#151616"/>
<path d="M50.8651 83.0945L19.0132 65.847L19.5875 57.7811H3.38241L0.869019 40.7696H20.7956L21.5594 29.9731L29.4268 25.7141L30.2283 18.6986L37.2586 12.6135L40.7004 15.5811L41.4701 9.10326L51.365 0.970947L61.2568 9.10326L62.0652 15.839L65.7123 12.6889L72.7486 18.7759L73.6165 26.4252L80.1717 29.9741L80.9414 40.7706H100.869L98.3467 57.7831H82.1426L82.7149 65.848L50.8651 83.0945Z" fill="white"/>
<path d="M50.8651 83.0945L19.0132 65.847L19.5875 57.7811H3.38241L0.869019 40.7696H20.7956L21.5594 29.9731L29.4268 25.7141L30.2283 18.6986L37.2586 12.6135L40.7004 15.5811L41.4701 9.10326L51.365 0.970947L61.2568 9.10326L62.0652 15.839L65.7123 12.6889L72.7486 18.7759L73.6165 26.4252L80.1717 29.9741L80.9414 40.7706H100.869L98.3467 57.7831H82.1426L82.7149 65.848L50.8651 83.0945Z" stroke="#151616" stroke-width="1.5001"/>
<path d="M63.2276 66.9351H38.5569V68.5022H63.2276V66.9351Z" fill="#FBCF2D"/>
<path d="M37.9361 28.4328L31.8192 31.6861L32.7645 21.1227L37.3241 17.545L43.0779 21.7952L43.4568 25.6843L37.9361 28.4328ZM36.5167 28.1084L32.9599 30.0029L33.7524 21.6444L36.7061 18.8355L36.5167 28.1084Z" fill="#151616"/>
<path d="M65.4821 28.9842L60.0824 26.825L60.6408 20.4363L65.1945 16.8567L70.9473 21.1088L71.9372 31.212L65.4821 28.9842ZM64.3881 27.4131L61.231 25.1338L61.6238 20.9501L64.5775 18.1471L64.3881 27.4131Z" fill="#151616"/>
<path d="M51.3759 22.92L43.1473 25.7885L44.4993 10.7785L50.9702 5.68927L59.1402 11.7297L60.5526 26.092L51.3759 22.92ZM49.8226 20.6942L44.776 23.3881L45.8958 11.5115L50.0914 7.53117L49.8226 20.6942Z" fill="#151616"/>
<path d="M52.2229 20.9194L76.0694 32.0342L77.0196 42.9527H71.8629L74.8772 41.8736L74.1283 33.3703L51.3561 22.7533L29.0192 33.1679L28.1047 41.8736L31.0287 42.9527H25.9385L27.1029 31.816L51.357 20.5197L52.2229 20.9194Z" fill="#151616"/>
<path d="M50.8651 83.0945L19.0132 65.847L19.5875 57.7811H3.38241L0.869019 40.7696H20.7956L21.5594 29.9731L29.4268 25.7141L30.2283 18.6986L37.2586 12.6135L40.7004 15.5811L41.4701 9.10326L51.365 0.970947L61.2568 9.10326L62.0652 15.839L65.7123 12.6889L72.7486 18.7759L73.6165 26.4252L80.1717 29.9741L80.9414 40.7706H100.869L98.3467 57.7831H82.1426L82.7149 65.848L50.8651 83.0945Z" fill="white"/>
<path d="M50.8651 83.0945L19.0132 65.847L19.5875 57.7811H3.38241L0.869019 40.7696H20.7956L21.5594 29.9731L29.4268 25.7141L30.2283 18.6986L37.2586 12.6135L40.7004 15.5811L41.4701 9.10326L51.365 0.970947L61.2568 9.10326L62.0652 15.839L65.7123 12.6889L72.7486 18.7759L73.6165 26.4252L80.1717 29.9741L80.9414 40.7706H100.869L98.3467 57.7831H82.1426L82.7149 65.848L50.8651 83.0945Z" stroke="#151616" stroke-width="1.5001"/>
<path d="M63.2276 66.9351H38.5569V68.5022H63.2276V66.9351Z" fill="#FBCF2D"/>
<path d="M37.9361 28.4328L31.8192 31.6861L32.7645 21.1227L37.3241 17.545L43.0779 21.7952L43.4568 25.6843L37.9361 28.4328ZM36.5167 28.1084L32.9599 30.0029L33.7524 21.6444L36.7061 18.8355L36.5167 28.1084Z" fill="#151616"/>
<path d="M65.4821 28.9842L60.0824 26.825L60.6408 20.4363L65.1945 16.8567L70.9473 21.1088L71.9372 31.212L65.4821 28.9842ZM64.3881 27.4131L61.231 25.1338L61.6238 20.9501L64.5775 18.1471L64.3881 27.4131Z" fill="#151616"/>
<path d="M51.3759 22.92L43.1473 25.7885L44.4993 10.7785L50.9702 5.68927L59.1402 11.7297L60.5526 26.092L51.3759 22.92ZM49.8226 20.6942L44.776 23.3881L45.8958 11.5115L50.0914 7.53117L49.8226 20.6942Z" fill="#151616"/>
<path d="M52.2229 20.9194L76.0694 32.0342L77.0196 42.9527H71.8629L74.8772 41.8736L74.1283 33.3703L51.3561 22.7533L29.0192 33.1679L28.1047 41.8736L31.0287 42.9527H25.9385L27.1029 31.816L51.357 20.5197L52.2229 20.9194Z" fill="#151616"/>
<path d="M50.3266 22.1642C50.3266 21.9311 50.7888 21.7347 51.3551 21.7347C51.9225 21.7347 52.3817 21.9301 52.3817 22.1642V36.4986C52.3817 36.7853 51.9661 36.9043 51.5138 36.9122C50.9554 36.9271 50.3256 36.7615 50.3256 36.4986L50.3266 22.1642Z" fill="#151616"/>
<path d="M50.8651 83.0945L19.0132 65.847L19.5875 57.7811H3.38241L0.869019 40.7696H20.7956L21.5594 29.9731L29.4268 25.7141L30.2283 18.6986L37.2586 12.6135L40.7004 15.5811L41.4701 9.10326L51.365 0.970947L61.2568 9.10326L62.0652 15.839L65.7123 12.6889L72.7486 18.7759L73.6165 26.4252L80.1717 29.9741L80.9414 40.7706H100.869L98.3467 57.7831H82.1426L82.7149 65.848L50.8651 83.0945Z" fill="white"/>
<path d="M50.8651 83.0945L19.0132 65.847L19.5875 57.7811H3.38241L0.869019 40.7696H20.7956L21.5594 29.9731L29.4268 25.7141L30.2283 18.6986L37.2586 12.6135L40.7004 15.5811L41.4701 9.10326L51.365 0.970947L61.2568 9.10326L62.0652 15.839L65.7123 12.6889L72.7486 18.7759L73.6165 26.4252L80.1717 29.9741L80.9414 40.7706H100.869L98.3467 57.7831H82.1426L82.7149 65.848L50.8651 83.0945Z" stroke="#151616" stroke-width="1.5001"/>
<path d="M63.2276 66.9351H38.5569V68.5022H63.2276V66.9351Z" fill="#FBCF2D"/>
<path d="M37.9361 28.4328L31.8192 31.6861L32.7645 21.1227L37.3241 17.545L43.0779 21.7952L43.4568 25.6843L37.9361 28.4328ZM36.5167 28.1084L32.9599 30.0029L33.7524 21.6444L36.7061 18.8355L36.5167 28.1084Z" fill="#151616"/>
<path d="M65.4821 28.9842L60.0824 26.825L60.6408 20.4363L65.1945 16.8567L70.9473 21.1088L71.9372 31.212L65.4821 28.9842ZM64.3881 27.4131L61.231 25.1338L61.6238 20.9501L64.5775 18.1471L64.3881 27.4131Z" fill="#151616"/>
<path d="M51.3759 22.92L43.1473 25.7885L44.4993 10.7785L50.9702 5.68927L59.1402 11.7297L60.5526 26.092L51.3759 22.92ZM49.8226 20.6942L44.776 23.3881L45.8958 11.5115L50.0914 7.53117L49.8226 20.6942Z" fill="#151616"/>
<path d="M52.2229 20.9194L76.0694 32.0342L77.0196 42.9527H71.8629L74.8772 41.8736L74.1283 33.3703L51.3561 22.7533L29.0192 33.1679L28.1047 41.8736L31.0287 42.9527H25.9385L27.1029 31.816L51.357 20.5197L52.2229 20.9194Z" fill="#151616"/>
<path d="M50.3266 22.1642C50.3266 21.9311 50.7888 21.7347 51.3551 21.7347C51.9225 21.7347 52.3817 21.9301 52.3817 22.1642V36.4986C52.3817 36.7853 51.9661 36.9043 51.5138 36.9122C50.9554 36.9271 50.3256 36.7615 50.3256 36.4986L50.3266 22.1642Z" fill="#151616"/>
<path d="M51.5514 35.4482L55.1975 37.7057L51.5514 36.8755V35.4482Z" fill="#151616"/>
<path d="M50.8651 83.0945L19.0132 65.847L19.5875 57.7811H3.38241L0.869019 40.7696H20.7956L21.5594 29.9731L29.4268 25.7141L30.2283 18.6986L37.2586 12.6135L40.7004 15.5811L41.4701 9.10326L51.365 0.970947L61.2568 9.10326L62.0652 15.839L65.7123 12.6889L72.7486 18.7759L73.6165 26.4252L80.1717 29.9741L80.9414 40.7706H100.869L98.3467 57.7831H82.1426L82.7149 65.848L50.8651 83.0945Z" fill="white"/>
<path d="M50.8651 83.0945L19.0132 65.847L19.5875 57.7811H3.38241L0.869019 40.7696H20.7956L21.5594 29.9731L29.4268 25.7141L30.2283 18.6986L37.2586 12.6135L40.7004 15.5811L41.4701 9.10326L51.365 0.970947L61.2568 9.10326L62.0652 15.839L65.7123 12.6889L72.7486 18.7759L73.6165 26.4252L80.1717 29.9741L80.9414 40.7706H100.869L98.3467 57.7831H82.1426L82.7149 65.848L50.8651 83.0945Z" stroke="#151616" stroke-width="1.5001"/>
<path d="M63.2276 66.9351H38.5569V68.5022H63.2276V66.9351Z" fill="#FBCF2D"/>
<path d="M37.9361 28.4328L31.8192 31.6861L32.7645 21.1227L37.3241 17.545L43.0779 21.7952L43.4568 25.6843L37.9361 28.4328ZM36.5167 28.1084L32.9599 30.0029L33.7524 21.6444L36.7061 18.8355L36.5167 28.1084Z" fill="#151616"/>
<path d="M65.4821 28.9842L60.0824 26.825L60.6408 20.4363L65.1945 16.8567L70.9473 21.1088L71.9372 31.212L65.4821 28.9842ZM64.3881 27.4131L61.231 25.1338L61.6238 20.9501L64.5775 18.1471L64.3881 27.4131Z" fill="#151616"/>
<path d="M51.3759 22.92L43.1473 25.7885L44.4993 10.7785L50.9702 5.68927L59.1402 11.7297L60.5526 26.092L51.3759 22.92ZM49.8226 20.6942L44.776 23.3881L45.8958 11.5115L50.0914 7.53117L49.8226 20.6942Z" fill="#151616"/>
<path d="M52.2229 20.9194L76.0694 32.0342L77.0196 42.9527H71.8629L74.8772 41.8736L74.1283 33.3703L51.3561 22.7533L29.0192 33.1679L28.1047 41.8736L31.0287 42.9527H25.9385L27.1029 31.816L51.357 20.5197L52.2229 20.9194Z" fill="#151616"/>
<path d="M50.3266 22.1642C50.3266 21.9311 50.7888 21.7347 51.3551 21.7347C51.9225 21.7347 52.3817 21.9301 52.3817 22.1642V36.4986C52.3817 36.7853 51.9661 36.9043 51.5138 36.9122C50.9554 36.9271 50.3256 36.7615 50.3256 36.4986L50.3266 22.1642Z" fill="#151616"/>
<path d="M51.5514 35.4482L55.1975 37.7057L51.5514 36.8755V35.4482Z" fill="#151616"/>
<path d="M30.3771 34.9038L33.5183 34.5725V38.4536L30.3771 38.778V34.9038ZM44.527 33.4239L47.6673 33.0995V36.9728L44.527 37.3031V33.4239ZM39.8087 33.9149L42.95 33.5905V37.4638L39.8087 37.795V33.9149ZM35.0904 34.4039L38.2396 34.0815V37.9547L35.0904 38.286V34.4039Z" fill="#FCBD00"/>
<path d="M50.8651 83.0945L19.0132 65.847L19.5875 57.7811H3.38241L0.869019 40.7696H20.7956L21.5594 29.9731L29.4268 25.7141L30.2283 18.6986L37.2586 12.6135L40.7004 15.5811L41.4701 9.10326L51.365 0.970947L61.2568 9.10326L62.0652 15.839L65.7123 12.6889L72.7486 18.7759L73.6165 26.4252L80.1717 29.9741L80.9414 40.7706H100.869L98.3467 57.7831H82.1426L82.7149 65.848L50.8651 83.0945Z" fill="white"/>
<path d="M50.8651 83.0945L19.0132 65.847L19.5875 57.7811H3.38241L0.869019 40.7696H20.7956L21.5594 29.9731L29.4268 25.7141L30.2283 18.6986L37.2586 12.6135L40.7004 15.5811L41.4701 9.10326L51.365 0.970947L61.2568 9.10326L62.0652 15.839L65.7123 12.6889L72.7486 18.7759L73.6165 26.4252L80.1717 29.9741L80.9414 40.7706H100.869L98.3467 57.7831H82.1426L82.7149 65.848L50.8651 83.0945Z" stroke="#151616" stroke-width="1.5001"/>
<path d="M63.2276 66.9351H38.5569V68.5022H63.2276V66.9351Z" fill="#FBCF2D"/>
<path d="M37.9361 28.4328L31.8192 31.6861L32.7645 21.1227L37.3241 17.545L43.0779 21.7952L43.4568 25.6843L37.9361 28.4328ZM36.5167 28.1084L32.9599 30.0029L33.7524 21.6444L36.7061 18.8355L36.5167 28.1084Z" fill="#151616"/>
<path d="M65.4821 28.9842L60.0824 26.825L60.6408 20.4363L65.1945 16.8567L70.9473 21.1088L71.9372 31.212L65.4821 28.9842ZM64.3881 27.4131L61.231 25.1338L61.6238 20.9501L64.5775 18.1471L64.3881 27.4131Z" fill="#151616"/>
<path d="M51.3759 22.92L43.1473 25.7885L44.4993 10.7785L50.9702 5.68927L59.1402 11.7297L60.5526 26.092L51.3759 22.92ZM49.8226 20.6942L44.776 23.3881L45.8958 11.5115L50.0914 7.53117L49.8226 20.6942Z" fill="#151616"/>
<path d="M52.2229 20.9194L76.0694 32.0342L77.0196 42.9527H71.8629L74.8772 41.8736L74.1283 33.3703L51.3561 22.7533L29.0192 33.1679L28.1047 41.8736L31.0287 42.9527H25.9385L27.1029 31.816L51.357 20.5197L52.2229 20.9194Z" fill="#151616"/>
<path d="M50.3266 22.1642C50.3266 21.9311 50.7888 21.7347 51.3551 21.7347C51.9225 21.7347 52.3817 21.9301 52.3817 22.1642V36.4986C52.3817 36.7853 51.9661 36.9043 51.5138 36.9122C50.9554 36.9271 50.3256 36.7615 50.3256 36.4986L50.3266 22.1642Z" fill="#151616"/>
<path d="M51.5514 35.4482L55.1975 37.7057L51.5514 36.8755V35.4482Z" fill="#151616"/>
<path d="M30.3771 34.9038L33.5183 34.5725V38.4536L30.3771 38.778V34.9038ZM44.527 33.4239L47.6673 33.0995V36.9728L44.527 37.3031V33.4239ZM39.8087 33.9149L42.95 33.5905V37.4638L39.8087 37.795V33.9149ZM35.0904 34.4039L38.2396 34.0815V37.9547L35.0904 38.286V34.4039Z" fill="#FCBD00"/>
<path d="M51.4662 35.4482L47.829 37.7057L51.4662 36.8755V35.4482Z" fill="#151616"/>
<path d="M50.8651 83.0945L19.0132 65.847L19.5875 57.7811H3.38241L0.869019 40.7696H20.7956L21.5594 29.9731L29.4268 25.7141L30.2283 18.6986L37.2586 12.6135L40.7004 15.5811L41.4701 9.10326L51.365 0.970947L61.2568 9.10326L62.0652 15.839L65.7123 12.6889L72.7486 18.7759L73.6165 26.4252L80.1717 29.9741L80.9414 40.7706H100.869L98.3467 57.7831H82.1426L82.7149 65.848L50.8651 83.0945Z" fill="white"/>
<path d="M50.8651 83.0945L19.0132 65.847L19.5875 57.7811H3.38241L0.869019 40.7696H20.7956L21.5594 29.9731L29.4268 25.7141L30.2283 18.6986L37.2586 12.6135L40.7004 15.5811L41.4701 9.10326L51.365 0.970947L61.2568 9.10326L62.0652 15.839L65.7123 12.6889L72.7486 18.7759L73.6165 26.4252L80.1717 29.9741L80.9414 40.7706H100.869L98.3467 57.7831H82.1426L82.7149 65.848L50.8651 83.0945Z" stroke="#151616" stroke-width="1.5001"/>
<path d="M63.2276 66.9351H38.5569V68.5022H63.2276V66.9351Z" fill="#FBCF2D"/>
<path d="M37.9361 28.4328L31.8192 31.6861L32.7645 21.1227L37.3241 17.545L43.0779 21.7952L43.4568 25.6843L37.9361 28.4328ZM36.5167 28.1084L32.9599 30.0029L33.7524 21.6444L36.7061 18.8355L36.5167 28.1084Z" fill="#151616"/>
<path d="M65.4821 28.9842L60.0824 26.825L60.6408 20.4363L65.1945 16.8567L70.9473 21.1088L71.9372 31.212L65.4821 28.9842ZM64.3881 27.4131L61.231 25.1338L61.6238 20.9501L64.5775 18.1471L64.3881 27.4131Z" fill="#151616"/>
<path d="M51.3759 22.92L43.1473 25.7885L44.4993 10.7785L50.9702 5.68927L59.1402 11.7297L60.5526 26.092L51.3759 22.92ZM49.8226 20.6942L44.776 23.3881L45.8958 11.5115L50.0914 7.53117L49.8226 20.6942Z" fill="#151616"/>
<path d="M52.2229 20.9194L76.0694 32.0342L77.0196 42.9527H71.8629L74.8772 41.8736L74.1283 33.3703L51.3561 22.7533L29.0192 33.1679L28.1047 41.8736L31.0287 42.9527H25.9385L27.1029 31.816L51.357 20.5197L52.2229 20.9194Z" fill="#151616"/>
<path d="M50.3266 22.1642C50.3266 21.9311 50.7888 21.7347 51.3551 21.7347C51.9225 21.7347 52.3817 21.9301 52.3817 22.1642V36.4986C52.3817 36.7853 51.9661 36.9043 51.5138 36.9122C50.9554 36.9271 50.3256 36.7615 50.3256 36.4986L50.3266 22.1642Z" fill="#151616"/>
<path d="M51.5514 35.4482L55.1975 37.7057L51.5514 36.8755V35.4482Z" fill="#151616"/>
<path d="M30.3771 34.9038L33.5183 34.5725V38.4536L30.3771 38.778V34.9038ZM44.527 33.4239L47.6673 33.0995V36.9728L44.527 37.3031V33.4239ZM39.8087 33.9149L42.95 33.5905V37.4638L39.8087 37.795V33.9149ZM35.0904 34.4039L38.2396 34.0815V37.9547L35.0904 38.286V34.4039Z" fill="#FCBD00"/>
<path d="M51.4662 35.4482L47.829 37.7057L51.4662 36.8755V35.4482Z" fill="#151616"/>
<path d="M44.4615 34.261L45.502 33.9356V29.2322L47.6851 28.3931V27.9329C46.6357 28.3564 45.5853 28.7779 44.5349 29.2005L44.4615 34.261Z" fill="#313130"/>
<path d="M50.8651 83.0945L19.0132 65.847L19.5875 57.7811H3.38241L0.869019 40.7696H20.7956L21.5594 29.9731L29.4268 25.7141L30.2283 18.6986L37.2586 12.6135L40.7004 15.5811L41.4701 9.10326L51.365 0.970947L61.2568 9.10326L62.0652 15.839L65.7123 12.6889L72.7486 18.7759L73.6165 26.4252L80.1717 29.9741L80.9414 40.7706H100.869L98.3467 57.7831H82.1426L82.7149 65.848L50.8651 83.0945Z" fill="white"/>
<path d="M50.8651 83.0945L19.0132 65.847L19.5875 57.7811H3.38241L0.869019 40.7696H20.7956L21.5594 29.9731L29.4268 25.7141L30.2283 18.6986L37.2586 12.6135L40.7004 15.5811L41.4701 9.10326L51.365 0.970947L61.2568 9.10326L62.0652 15.839L65.7123 12.6889L72.7486 18.7759L73.6165 26.4252L80.1717 29.9741L80.9414 40.7706H100.869L98.3467 57.7831H82.1426L82.7149 65.848L50.8651 83.0945Z" stroke="#151616" stroke-width="1.5001"/>
<path d="M63.2276 66.9351H38.5569V68.5022H63.2276V66.9351Z" fill="#FBCF2D"/>
<path d="M37.9361 28.4328L31.8192 31.6861L32.7645 21.1227L37.3241 17.545L43.0779 21.7952L43.4568 25.6843L37.9361 28.4328ZM36.5167 28.1084L32.9599 30.0029L33.7524 21.6444L36.7061 18.8355L36.5167 28.1084Z" fill="#151616"/>
<path d="M65.4821 28.9842L60.0824 26.825L60.6408 20.4363L65.1945 16.8567L70.9473 21.1088L71.9372 31.212L65.4821 28.9842ZM64.3881 27.4131L61.231 25.1338L61.6238 20.9501L64.5775 18.1471L64.3881 27.4131Z" fill="#151616"/>
<path d="M51.3759 22.92L43.1473 25.7885L44.4993 10.7785L50.9702 5.68927L59.1402 11.7297L60.5526 26.092L51.3759 22.92ZM49.8226 20.6942L44.776 23.3881L45.8958 11.5115L50.0914 7.53117L49.8226 20.6942Z" fill="#151616"/>
<path d="M52.2229 20.9194L76.0694 32.0342L77.0196 42.9527H71.8629L74.8772 41.8736L74.1283 33.3703L51.3561 22.7533L29.0192 33.1679L28.1047 41.8736L31.0287 42.9527H25.9385L27.1029 31.816L51.357 20.5197L52.2229 20.9194Z" fill="#151616"/>
<path d="M50.3266 22.1642C50.3266 21.9311 50.7888 21.7347 51.3551 21.7347C51.9225 21.7347 52.3817 21.9301 52.3817 22.1642V36.4986C52.3817 36.7853 51.9661 36.9043 51.5138 36.9122C50.9554 36.9271 50.3256 36.7615 50.3256 36.4986L50.3266 22.1642Z" fill="#151616"/>
<path d="M51.5514 35.4482L55.1975 37.7057L51.5514 36.8755V35.4482Z" fill="#151616"/>
<path d="M30.3771 34.9038L33.5183 34.5725V38.4536L30.3771 38.778V34.9038ZM44.527 33.4239L47.6673 33.0995V36.9728L44.527 37.3031V33.4239ZM39.8087 33.9149L42.95 33.5905V37.4638L39.8087 37.795V33.9149ZM35.0904 34.4039L38.2396 34.0815V37.9547L35.0904 38.286V34.4039Z" fill="#FCBD00"/>
<path d="M51.4662 35.4482L47.829 37.7057L51.4662 36.8755V35.4482Z" fill="#151616"/>
<path d="M44.4615 34.261L45.502 33.9356V29.2322L47.6851 28.3931V27.9329C46.6357 28.3564 45.5853 28.7779 44.5349 29.2005L44.4615 34.261Z" fill="#313130"/>
<path d="M39.6659 35.8182L40.5258 35.5534L40.6409 31.1743L42.951 30.2836L42.9579 29.8611C41.976 30.2449 40.7907 30.7131 39.8167 31.1049L39.6659 35.8182Z" fill="#313130"/>
<path d="M50.8651 83.0945L19.0132 65.847L19.5875 57.7811H3.38241L0.869019 40.7696H20.7956L21.5594 29.9731L29.4268 25.7141L30.2283 18.6986L37.2586 12.6135L40.7004 15.5811L41.4701 9.10326L51.365 0.970947L61.2568 9.10326L62.0652 15.839L65.7123 12.6889L72.7486 18.7759L73.6165 26.4252L80.1717 29.9741L80.9414 40.7706H100.869L98.3467 57.7831H82.1426L82.7149 65.848L50.8651 83.0945Z" fill="white"/>
<path d="M50.8651 83.0945L19.0132 65.847L19.5875 57.7811H3.38241L0.869019 40.7696H20.7956L21.5594 29.9731L29.4268 25.7141L30.2283 18.6986L37.2586 12.6135L40.7004 15.5811L41.4701 9.10326L51.365 0.970947L61.2568 9.10326L62.0652 15.839L65.7123 12.6889L72.7486 18.7759L73.6165 26.4252L80.1717 29.9741L80.9414 40.7706H100.869L98.3467 57.7831H82.1426L82.7149 65.848L50.8651 83.0945Z" stroke="#151616" stroke-width="1.5001"/>
<path d="M63.2276 66.9351H38.5569V68.5022H63.2276V66.9351Z" fill="#FBCF2D"/>
<path d="M37.9361 28.4328L31.8192 31.6861L32.7645 21.1227L37.3241 17.545L43.0779 21.7952L43.4568 25.6843L37.9361 28.4328ZM36.5167 28.1084L32.9599 30.0029L33.7524 21.6444L36.7061 18.8355L36.5167 28.1084Z" fill="#151616"/>
<path d="M65.4821 28.9842L60.0824 26.825L60.6408 20.4363L65.1945 16.8567L70.9473 21.1088L71.9372 31.212L65.4821 28.9842ZM64.3881 27.4131L61.231 25.1338L61.6238 20.9501L64.5775 18.1471L64.3881 27.4131Z" fill="#151616"/>
<path d="M51.3759 22.92L43.1473 25.7885L44.4993 10.7785L50.9702 5.68927L59.1402 11.7297L60.5526 26.092L51.3759 22.92ZM49.8226 20.6942L44.776 23.3881L45.8958 11.5115L50.0914 7.53117L49.8226 20.6942Z" fill="#151616"/>
<path d="M52.2229 20.9194L76.0694 32.0342L77.0196 42.9527H71.8629L74.8772 41.8736L74.1283 33.3703L51.3561 22.7533L29.0192 33.1679L28.1047 41.8736L31.0287 42.9527H25.9385L27.1029 31.816L51.357 20.5197L52.2229 20.9194Z" fill="#151616"/>
<path d="M50.3266 22.1642C50.3266 21.9311 50.7888 21.7347 51.3551 21.7347C51.9225 21.7347 52.3817 21.9301 52.3817 22.1642V36.4986C52.3817 36.7853 51.9661 36.9043 51.5138 36.9122C50.9554 36.9271 50.3256 36.7615 50.3256 36.4986L50.3266 22.1642Z" fill="#151616"/>
<path d="M51.5514 35.4482L55.1975 37.7057L51.5514 36.8755V35.4482Z" fill="#151616"/>
<path d="M30.3771 34.9038L33.5183 34.5725V38.4536L30.3771 38.778V34.9038ZM44.527 33.4239L47.6673 33.0995V36.9728L44.527 37.3031V33.4239ZM39.8087 33.9149L42.95 33.5905V37.4638L39.8087 37.795V33.9149ZM35.0904 34.4039L38.2396 34.0815V37.9547L35.0904 38.286V34.4039Z" fill="#FCBD00"/>
<path d="M51.4662 35.4482L47.829 37.7057L51.4662 36.8755V35.4482Z" fill="#151616"/>
<path d="M44.4615 34.261L45.502 33.9356V29.2322L47.6851 28.3931V27.9329C46.6357 28.3564 45.5853 28.7779 44.5349 29.2005L44.4615 34.261Z" fill="#313130"/>
<path d="M39.6659 35.8182L40.5258 35.5534L40.6409 31.1743L42.951 30.2836L42.9579 29.8611C41.976 30.2449 40.7907 30.7131 39.8167 31.1049L39.6659 35.8182Z" fill="#313130"/>
<path d="M34.8702 37.3655L35.6568 37.1235L35.8452 33.0687L38.2396 32.1254L38.2446 31.7327C37.3489 32.0868 35.9891 32.6452 35.0974 33.0013L34.8702 37.3655Z" fill="#313130"/>
<path d="M50.8651 83.0945L19.0132 65.847L19.5875 57.7811H3.38241L0.869019 40.7696H20.7956L21.5594 29.9731L29.4268 25.7141L30.2283 18.6986L37.2586 12.6135L40.7004 15.5811L41.4701 9.10326L51.365 0.970947L61.2568 9.10326L62.0652 15.839L65.7123 12.6889L72.7486 18.7759L73.6165 26.4252L80.1717 29.9741L80.9414 40.7706H100.869L98.3467 57.7831H82.1426L82.7149 65.848L50.8651 83.0945Z" fill="white"/>
<path d="M50.8651 83.0945L19.0132 65.847L19.5875 57.7811H3.38241L0.869019 40.7696H20.7956L21.5594 29.9731L29.4268 25.7141L30.2283 18.6986L37.2586 12.6135L40.7004 15.5811L41.4701 9.10326L51.365 0.970947L61.2568 9.10326L62.0652 15.839L65.7123 12.6889L72.7486 18.7759L73.6165 26.4252L80.1717 29.9741L80.9414 40.7706H100.869L98.3467 57.7831H82.1426L82.7149 65.848L50.8651 83.0945Z" stroke="#151616" stroke-width="1.5001"/>
<path d="M63.2276 66.9351H38.5569V68.5022H63.2276V66.9351Z" fill="#FBCF2D"/>
<path d="M37.9361 28.4328L31.8192 31.6861L32.7645 21.1227L37.3241 17.545L43.0779 21.7952L43.4568 25.6843L37.9361 28.4328ZM36.5167 28.1084L32.9599 30.0029L33.7524 21.6444L36.7061 18.8355L36.5167 28.1084Z" fill="#151616"/>
<path d="M65.4821 28.9842L60.0824 26.825L60.6408 20.4363L65.1945 16.8567L70.9473 21.1088L71.9372 31.212L65.4821 28.9842ZM64.3881 27.4131L61.231 25.1338L61.6238 20.9501L64.5775 18.1471L64.3881 27.4131Z" fill="#151616"/>
<path d="M51.3759 22.92L43.1473 25.7885L44.4993 10.7785L50.9702 5.68927L59.1402 11.7297L60.5526 26.092L51.3759 22.92ZM49.8226 20.6942L44.776 23.3881L45.8958 11.5115L50.0914 7.53117L49.8226 20.6942Z" fill="#151616"/>
<path d="M52.2229 20.9194L76.0694 32.0342L77.0196 42.9527H71.8629L74.8772 41.8736L74.1283 33.3703L51.3561 22.7533L29.0192 33.1679L28.1047 41.8736L31.0287 42.9527H25.9385L27.1029 31.816L51.357 20.5197L52.2229 20.9194Z" fill="#151616"/>
<path d="M50.3266 22.1642C50.3266 21.9311 50.7888 21.7347 51.3551 21.7347C51.9225 21.7347 52.3817 21.9301 52.3817 22.1642V36.4986C52.3817 36.7853 51.9661 36.9043 51.5138 36.9122C50.9554 36.9271 50.3256 36.7615 50.3256 36.4986L50.3266 22.1642Z" fill="#151616"/>
<path d="M51.5514 35.4482L55.1975 37.7057L51.5514 36.8755V35.4482Z" fill="#151616"/>
<path d="M30.3771 34.9038L33.5183 34.5725V38.4536L30.3771 38.778V34.9038ZM44.527 33.4239L47.6673 33.0995V36.9728L44.527 37.3031V33.4239ZM39.8087 33.9149L42.95 33.5905V37.4638L39.8087 37.795V33.9149ZM35.0904 34.4039L38.2396 34.0815V37.9547L35.0904 38.286V34.4039Z" fill="#FCBD00"/>
<path d="M51.4662 35.4482L47.829 37.7057L51.4662 36.8755V35.4482Z" fill="#151616"/>
<path d="M44.4615 34.261L45.502 33.9356V29.2322L47.6851 28.3931V27.9329C46.6357 28.3564 45.5853 28.7779 44.5349 29.2005L44.4615 34.261Z" fill="#313130"/>
<path d="M39.6659 35.8182L40.5258 35.5534L40.6409 31.1743L42.951 30.2836L42.9579 29.8611C41.976 30.2449 40.7907 30.7131 39.8167 31.1049L39.6659 35.8182Z" fill="#313130"/>
<path d="M34.8702 37.3655L35.6568 37.1235L35.8452 33.0687L38.2396 32.1254L38.2446 31.7327C37.3489 32.0868 35.9891 32.6452 35.0974 33.0013L34.8702 37.3655Z" fill="#313130"/>
<path d="M30.0756 38.9138L30.8611 38.6718L31.125 34.9702L33.5193 34.02L33.5273 33.6351C32.6366 33.9912 31.2688 34.5496 30.3781 34.9037L30.0756 38.9138Z" fill="#313130"/>
<path d="M50.8651 83.0945L19.0132 65.847L19.5875 57.7811H3.38241L0.869019 40.7696H20.7956L21.5594 29.9731L29.4268 25.7141L30.2283 18.6986L37.2586 12.6135L40.7004 15.5811L41.4701 9.10326L51.365 0.970947L61.2568 9.10326L62.0652 15.839L65.7123 12.6889L72.7486 18.7759L73.6165 26.4252L80.1717 29.9741L80.9414 40.7706H100.869L98.3467 57.7831H82.1426L82.7149 65.848L50.8651 83.0945Z" fill="white"/>
<path d="M50.8651 83.0945L19.0132 65.847L19.5875 57.7811H3.38241L0.869019 40.7696H20.7956L21.5594 29.9731L29.4268 25.7141L30.2283 18.6986L37.2586 12.6135L40.7004 15.5811L41.4701 9.10326L51.365 0.970947L61.2568 9.10326L62.0652 15.839L65.7123 12.6889L72.7486 18.7759L73.6165 26.4252L80.1717 29.9741L80.9414 40.7706H100.869L98.3467 57.7831H82.1426L82.7149 65.848L50.8651 83.0945Z" stroke="#151616" stroke-width="1.5001"/>
<path d="M63.2276 66.9351H38.5569V68.5022H63.2276V66.9351Z" fill="#FBCF2D"/>
<path d="M37.9361 28.4328L31.8192 31.6861L32.7645 21.1227L37.3241 17.545L43.0779 21.7952L43.4568 25.6843L37.9361 28.4328ZM36.5167 28.1084L32.9599 30.0029L33.7524 21.6444L36.7061 18.8355L36.5167 28.1084Z" fill="#151616"/>
<path d="M65.4821 28.9842L60.0824 26.825L60.6408 20.4363L65.1945 16.8567L70.9473 21.1088L71.9372 31.212L65.4821 28.9842ZM64.3881 27.4131L61.231 25.1338L61.6238 20.9501L64.5775 18.1471L64.3881 27.4131Z" fill="#151616"/>
<path d="M51.3759 22.92L43.1473 25.7885L44.4993 10.7785L50.9702 5.68927L59.1402 11.7297L60.5526 26.092L51.3759 22.92ZM49.8226 20.6942L44.776 23.3881L45.8958 11.5115L50.0914 7.53117L49.8226 20.6942Z" fill="#151616"/>
<path d="M52.2229 20.9194L76.0694 32.0342L77.0196 42.9527H71.8629L74.8772 41.8736L74.1283 33.3703L51.3561 22.7533L29.0192 33.1679L28.1047 41.8736L31.0287 42.9527H25.9385L27.1029 31.816L51.357 20.5197L52.2229 20.9194Z" fill="#151616"/>
<path d="M50.3266 22.1642C50.3266 21.9311 50.7888 21.7347 51.3551 21.7347C51.9225 21.7347 52.3817 21.9301 52.3817 22.1642V36.4986C52.3817 36.7853 51.9661 36.9043 51.5138 36.9122C50.9554 36.9271 50.3256 36.7615 50.3256 36.4986L50.3266 22.1642Z" fill="#151616"/>
<path d="M51.5514 35.4482L55.1975 37.7057L51.5514 36.8755V35.4482Z" fill="#151616"/>
<path d="M30.3771 34.9038L33.5183 34.5725V38.4536L30.3771 38.778V34.9038ZM44.527 33.4239L47.6673 33.0995V36.9728L44.527 37.3031V33.4239ZM39.8087 33.9149L42.95 33.5905V37.4638L39.8087 37.795V33.9149ZM35.0904 34.4039L38.2396 34.0815V37.9547L35.0904 38.286V34.4039Z" fill="#FCBD00"/>
<path d="M51.4662 35.4482L47.829 37.7057L51.4662 36.8755V35.4482Z" fill="#151616"/>
<path d="M44.4615 34.261L45.502 33.9356V29.2322L47.6851 28.3931V27.9329C46.6357 28.3564 45.5853 28.7779 44.5349 29.2005L44.4615 34.261Z" fill="#313130"/>
<path d="M39.6659 35.8182L40.5258 35.5534L40.6409 31.1743L42.951 30.2836L42.9579 29.8611C41.976 30.2449 40.7907 30.7131 39.8167 31.1049L39.6659 35.8182Z" fill="#313130"/>
<path d="M34.8702 37.3655L35.6568 37.1235L35.8452 33.0687L38.2396 32.1254L38.2446 31.7327C37.3489 32.0868 35.9891 32.6452 35.0974 33.0013L34.8702 37.3655Z" fill="#313130"/>
<path d="M30.0756 38.9138L30.8611 38.6718L31.125 34.9702L33.5193 34.02L33.5273 33.6351C32.6366 33.9912 31.2688 34.5496 30.3781 34.9037L30.0756 38.9138Z" fill="#313130"/>
<path d="M71.848 34.9037C70.7976 34.4822 69.7492 34.0597 68.6988 33.6351C68.7454 34.3443 68.7811 35.0555 68.8287 35.7587C68.8645 36.4679 68.9121 37.1781 68.9488 37.8873C70.014 38.2265 71.0872 38.5756 72.1515 38.9149C72.0979 38.2513 72.0464 37.5778 71.9988 36.9133C71.9462 36.2408 71.9016 35.5673 71.848 34.9037ZM57.6891 29.2015C56.6387 28.779 55.5893 28.3574 54.5399 27.9339C54.5479 28.8177 54.5479 29.7014 54.5548 30.5852C54.5548 31.4679 54.5637 32.3427 54.5637 33.2265C55.6359 33.5746 56.6982 33.9198 57.7645 34.261C57.7496 33.4239 57.7417 32.5778 57.7278 31.7327C57.7129 30.8946 57.697 30.0496 57.6891 29.2015ZM62.4084 31.1039C61.36 30.6834 60.3116 30.2598 59.2612 29.8363C59.283 30.6605 59.2979 31.4848 59.3138 32.307C59.3306 33.1362 59.3445 33.9605 59.3654 34.7837C60.4306 35.1229 61.4949 35.4691 62.5611 35.8173C62.5294 35.0327 62.5076 34.2451 62.4848 33.4606C62.463 32.677 62.4322 31.8914 62.4084 31.1039Z" fill="#FCBD00"/>
<path d="M50.8651 83.0945L19.0132 65.847L19.5875 57.7811H3.38241L0.869019 40.7696H20.7956L21.5594 29.9731L29.4268 25.7141L30.2283 18.6986L37.2586 12.6135L40.7004 15.5811L41.4701 9.10326L51.365 0.970947L61.2568 9.10326L62.0652 15.839L65.7123 12.6889L72.7486 18.7759L73.6165 26.4252L80.1717 29.9741L80.9414 40.7706H100.869L98.3467 57.7831H82.1426L82.7149 65.848L50.8651 83.0945Z" fill="white"/>
<path d="M50.8651 83.0945L19.0132 65.847L19.5875 57.7811H3.38241L0.869019 40.7696H20.7956L21.5594 29.9731L29.4268 25.7141L30.2283 18.6986L37.2586 12.6135L40.7004 15.5811L41.4701 9.10326L51.365 0.970947L61.2568 9.10326L62.0652 15.839L65.7123 12.6889L72.7486 18.7759L73.6165 26.4252L80.1717 29.9741L80.9414 40.7706H100.869L98.3467 57.7831H82.1426L82.7149 65.848L50.8651 83.0945Z" stroke="#151616" stroke-width="1.5001"/>
<path d="M63.2276 66.9351H38.5569V68.5022H63.2276V66.9351Z" fill="#FBCF2D"/>
<path d="M37.9361 28.4328L31.8192 31.6861L32.7645 21.1227L37.3241 17.545L43.0779 21.7952L43.4568 25.6843L37.9361 28.4328ZM36.5167 28.1084L32.9599 30.0029L33.7524 21.6444L36.7061 18.8355L36.5167 28.1084Z" fill="#151616"/>
<path d="M65.4821 28.9842L60.0824 26.825L60.6408 20.4363L65.1945 16.8567L70.9473 21.1088L71.9372 31.212L65.4821 28.9842ZM64.3881 27.4131L61.231 25.1338L61.6238 20.9501L64.5775 18.1471L64.3881 27.4131Z" fill="#151616"/>
<path d="M51.3759 22.92L43.1473 25.7885L44.4993 10.7785L50.9702 5.68927L59.1402 11.7297L60.5526 26.092L51.3759 22.92ZM49.8226 20.6942L44.776 23.3881L45.8958 11.5115L50.0914 7.53117L49.8226 20.6942Z" fill="#151616"/>
<path d="M52.2229 20.9194L76.0694 32.0342L77.0196 42.9527H71.8629L74.8772 41.8736L74.1283 33.3703L51.3561 22.7533L29.0192 33.1679L28.1047 41.8736L31.0287 42.9527H25.9385L27.1029 31.816L51.357 20.5197L52.2229 20.9194Z" fill="#151616"/>
<path d="M50.3266 22.1642C50.3266 21.9311 50.7888 21.7347 51.3551 21.7347C51.9225 21.7347 52.3817 21.9301 52.3817 22.1642V36.4986C52.3817 36.7853 51.9661 36.9043 51.5138 36.9122C50.9554 36.9271 50.3256 36.7615 50.3256 36.4986L50.3266 22.1642Z" fill="#151616"/>
<path d="M51.5514 35.4482L55.1975 37.7057L51.5514 36.8755V35.4482Z" fill="#151616"/>
<path d="M30.3771 34.9038L33.5183 34.5725V38.4536L30.3771 38.778V34.9038ZM44.527 33.4239L47.6673 33.0995V36.9728L44.527 37.3031V33.4239ZM39.8087 33.9149L42.95 33.5905V37.4638L39.8087 37.795V33.9149ZM35.0904 34.4039L38.2396 34.0815V37.9547L35.0904 38.286V34.4039Z" fill="#FCBD00"/>
<path d="M51.4662 35.4482L47.829 37.7057L51.4662 36.8755V35.4482Z" fill="#151616"/>
<path d="M44.4615 34.261L45.502 33.9356V29.2322L47.6851 28.3931V27.9329C46.6357 28.3564 45.5853 28.7779 44.5349 29.2005L44.4615 34.261Z" fill="#313130"/>
<path d="M39.6659 35.8182L40.5258 35.5534L40.6409 31.1743L42.951 30.2836L42.9579 29.8611C41.976 30.2449 40.7907 30.7131 39.8167 31.1049L39.6659 35.8182Z" fill="#313130"/>
<path d="M34.8702 37.3655L35.6568 37.1235L35.8452 33.0687L38.2396 32.1254L38.2446 31.7327C37.3489 32.0868 35.9891 32.6452 35.0974 33.0013L34.8702 37.3655Z" fill="#313130"/>
<path d="M30.0756 38.9138L30.8611 38.6718L31.125 34.9702L33.5193 34.02L33.5273 33.6351C32.6366 33.9912 31.2688 34.5496 30.3781 34.9037L30.0756 38.9138Z" fill="#313130"/>
<path d="M71.848 34.9037C70.7976 34.4822 69.7492 34.0597 68.6988 33.6351C68.7454 34.3443 68.7811 35.0555 68.8287 35.7587C68.8645 36.4679 68.9121 37.1781 68.9488 37.8873C70.014 38.2265 71.0872 38.5756 72.1515 38.9149C72.0979 38.2513 72.0464 37.5778 71.9988 36.9133C71.9462 36.2408 71.9016 35.5673 71.848 34.9037ZM57.6891 29.2015C56.6387 28.779 55.5893 28.3574 54.5399 27.9339C54.5479 28.8177 54.5479 29.7014 54.5548 30.5852C54.5548 31.4679 54.5637 32.3427 54.5637 33.2265C55.6359 33.5746 56.6982 33.9198 57.7645 34.261C57.7496 33.4239 57.7417 32.5778 57.7278 31.7327C57.7129 30.8946 57.697 30.0496 57.6891 29.2015ZM62.4084 31.1039C61.36 30.6834 60.3116 30.2598 59.2612 29.8363C59.283 30.6605 59.2979 31.4848 59.3138 32.307C59.3306 33.1362 59.3445 33.9605 59.3654 34.7837C60.4306 35.1229 61.4949 35.4691 62.5611 35.8173C62.5294 35.0327 62.5076 34.2451 62.4848 33.4606C62.463 32.677 62.4322 31.8914 62.4084 31.1039Z" fill="#FCBD00"/>
<path d="M57.7646 34.261L56.7231 33.9356V29.2322L54.541 28.3931V27.9329C55.5904 28.3564 56.6398 28.7779 57.6902 29.2005L57.7646 34.261Z" fill="#313130"/>
<path d="M50.8651 83.0945L19.0132 65.847L19.5875 57.7811H3.38241L0.869019 40.7696H20.7956L21.5594 29.9731L29.4268 25.7141L30.2283 18.6986L37.2586 12.6135L40.7004 15.5811L41.4701 9.10326L51.365 0.970947L61.2568 9.10326L62.0652 15.839L65.7123 12.6889L72.7486 18.7759L73.6165 26.4252L80.1717 29.9741L80.9414 40.7706H100.869L98.3467 57.7831H82.1426L82.7149 65.848L50.8651 83.0945Z" fill="white"/>
<path d="M50.8651 83.0945L19.0132 65.847L19.5875 57.7811H3.38241L0.869019 40.7696H20.7956L21.5594 29.9731L29.4268 25.7141L30.2283 18.6986L37.2586 12.6135L40.7004 15.5811L41.4701 9.10326L51.365 0.970947L61.2568 9.10326L62.0652 15.839L65.7123 12.6889L72.7486 18.7759L73.6165 26.4252L80.1717 29.9741L80.9414 40.7706H100.869L98.3467 57.7831H82.1426L82.7149 65.848L50.8651 83.0945Z" stroke="#151616" stroke-width="1.5001"/>
<path d="M63.2276 66.9351H38.5569V68.5022H63.2276V66.9351Z" fill="#FBCF2D"/>
<path d="M37.9361 28.4328L31.8192 31.6861L32.7645 21.1227L37.3241 17.545L43.0779 21.7952L43.4568 25.6843L37.9361 28.4328ZM36.5167 28.1084L32.9599 30.0029L33.7524 21.6444L36.7061 18.8355L36.5167 28.1084Z" fill="#151616"/>
<path d="M65.4821 28.9842L60.0824 26.825L60.6408 20.4363L65.1945 16.8567L70.9473 21.1088L71.9372 31.212L65.4821 28.9842ZM64.3881 27.4131L61.231 25.1338L61.6238 20.9501L64.5775 18.1471L64.3881 27.4131Z" fill="#151616"/>
<path d="M51.3759 22.92L43.1473 25.7885L44.4993 10.7785L50.9702 5.68927L59.1402 11.7297L60.5526 26.092L51.3759 22.92ZM49.8226 20.6942L44.776 23.3881L45.8958 11.5115L50.0914 7.53117L49.8226 20.6942Z" fill="#151616"/>
<path d="M52.2229 20.9194L76.0694 32.0342L77.0196 42.9527H71.8629L74.8772 41.8736L74.1283 33.3703L51.3561 22.7533L29.0192 33.1679L28.1047 41.8736L31.0287 42.9527H25.9385L27.1029 31.816L51.357 20.5197L52.2229 20.9194Z" fill="#151616"/>
<path d="M50.3266 22.1642C50.3266 21.9311 50.7888 21.7347 51.3551 21.7347C51.9225 21.7347 52.3817 21.9301 52.3817 22.1642V36.4986C52.3817 36.7853 51.9661 36.9043 51.5138 36.9122C50.9554 36.9271 50.3256 36.7615 50.3256 36.4986L50.3266 22.1642Z" fill="#151616"/>
<path d="M51.5514 35.4482L55.1975 37.7057L51.5514 36.8755V35.4482Z" fill="#151616"/>
<path d="M30.3771 34.9038L33.5183 34.5725V38.4536L30.3771 38.778V34.9038ZM44.527 33.4239L47.6673 33.0995V36.9728L44.527 37.3031V33.4239ZM39.8087 33.9149L42.95 33.5905V37.4638L39.8087 37.795V33.9149ZM35.0904 34.4039L38.2396 34.0815V37.9547L35.0904 38.286V34.4039Z" fill="#FCBD00"/>
<path d="M51.4662 35.4482L47.829 37.7057L51.4662 36.8755V35.4482Z" fill="#151616"/>
<path d="M44.4615 34.261L45.502 33.9356V29.2322L47.6851 28.3931V27.9329C46.6357 28.3564 45.5853 28.7779 44.5349 29.2005L44.4615 34.261Z" fill="#313130"/>
<path d="M39.6659 35.8182L40.5258 35.5534L40.6409 31.1743L42.951 30.2836L42.9579 29.8611C41.976 30.2449 40.7907 30.7131 39.8167 31.1049L39.6659 35.8182Z" fill="#313130"/>
<path d="M34.8702 37.3655L35.6568 37.1235L35.8452 33.0687L38.2396 32.1254L38.2446 31.7327C37.3489 32.0868 35.9891 32.6452 35.0974 33.0013L34.8702 37.3655Z" fill="#313130"/>
<path d="M30.0756 38.9138L30.8611 38.6718L31.125 34.9702L33.5193 34.02L33.5273 33.6351C32.6366 33.9912 31.2688 34.5496 30.3781 34.9037L30.0756 38.9138Z" fill="#313130"/>
<path d="M71.848 34.9037C70.7976 34.4822 69.7492 34.0597 68.6988 33.6351C68.7454 34.3443 68.7811 35.0555 68.8287 35.7587C68.8645 36.4679 68.9121 37.1781 68.9488 37.8873C70.014 38.2265 71.0872 38.5756 72.1515 38.9149C72.0979 38.2513 72.0464 37.5778 71.9988 36.9133C71.9462 36.2408 71.9016 35.5673 71.848 34.9037ZM57.6891 29.2015C56.6387 28.779 55.5893 28.3574 54.5399 27.9339C54.5479 28.8177 54.5479 29.7014 54.5548 30.5852C54.5548 31.4679 54.5637 32.3427 54.5637 33.2265C55.6359 33.5746 56.6982 33.9198 57.7645 34.261C57.7496 33.4239 57.7417 32.5778 57.7278 31.7327C57.7129 30.8946 57.697 30.0496 57.6891 29.2015ZM62.4084 31.1039C61.36 30.6834 60.3116 30.2598 59.2612 29.8363C59.283 30.6605 59.2979 31.4848 59.3138 32.307C59.3306 33.1362 59.3445 33.9605 59.3654 34.7837C60.4306 35.1229 61.4949 35.4691 62.5611 35.8173C62.5294 35.0327 62.5076 34.2451 62.4848 33.4606C62.463 32.677 62.4322 31.8914 62.4084 31.1039Z" fill="#FCBD00"/>
<path d="M57.7646 34.261L56.7231 33.9356V29.2322L54.541 28.3931V27.9329C55.5904 28.3564 56.6398 28.7779 57.6902 29.2005L57.7646 34.261Z" fill="#313130"/>
<path d="M62.5611 35.8182L61.6992 35.5534L61.5861 31.1743L59.2661 30.2836V29.86C60.2491 30.2439 61.4284 30.7121 62.4074 31.1038L62.5611 35.8182Z" fill="#313130"/>
<path d="M50.8651 83.0945L19.0132 65.847L19.5875 57.7811H3.38241L0.869019 40.7696H20.7956L21.5594 29.9731L29.4268 25.7141L30.2283 18.6986L37.2586 12.6135L40.7004 15.5811L41.4701 9.10326L51.365 0.970947L61.2568 9.10326L62.0652 15.839L65.7123 12.6889L72.7486 18.7759L73.6165 26.4252L80.1717 29.9741L80.9414 40.7706H100.869L98.3467 57.7831H82.1426L82.7149 65.848L50.8651 83.0945Z" fill="white"/>
<path d="M50.8651 83.0945L19.0132 65.847L19.5875 57.7811H3.38241L0.869019 40.7696H20.7956L21.5594 29.9731L29.4268 25.7141L30.2283 18.6986L37.2586 12.6135L40.7004 15.5811L41.4701 9.10326L51.365 0.970947L61.2568 9.10326L62.0652 15.839L65.7123 12.6889L72.7486 18.7759L73.6165 26.4252L80.1717 29.9741L80.9414 40.7706H100.869L98.3467 57.7831H82.1426L82.7149 65.848L50.8651 83.0945Z" stroke="#151616" stroke-width="1.5001"/>
<path d="M63.2276 66.9351H38.5569V68.5022H63.2276V66.9351Z" fill="#FBCF2D"/>
<path d="M37.9361 28.4328L31.8192 31.6861L32.7645 21.1227L37.3241 17.545L43.0779 21.7952L43.4568 25.6843L37.9361 28.4328ZM36.5167 28.1084L32.9599 30.0029L33.7524 21.6444L36.7061 18.8355L36.5167 28.1084Z" fill="#151616"/>
<path d="M65.4821 28.9842L60.0824 26.825L60.6408 20.4363L65.1945 16.8567L70.9473 21.1088L71.9372 31.212L65.4821 28.9842ZM64.3881 27.4131L61.231 25.1338L61.6238 20.9501L64.5775 18.1471L64.3881 27.4131Z" fill="#151616"/>
<path d="M51.3759 22.92L43.1473 25.7885L44.4993 10.7785L50.9702 5.68927L59.1402 11.7297L60.5526 26.092L51.3759 22.92ZM49.8226 20.6942L44.776 23.3881L45.8958 11.5115L50.0914 7.53117L49.8226 20.6942Z" fill="#151616"/>
<path d="M52.2229 20.9194L76.0694 32.0342L77.0196 42.9527H71.8629L74.8772 41.8736L74.1283 33.3703L51.3561 22.7533L29.0192 33.1679L28.1047 41.8736L31.0287 42.9527H25.9385L27.1029 31.816L51.357 20.5197L52.2229 20.9194Z" fill="#151616"/>
<path d="M50.3266 22.1642C50.3266 21.9311 50.7888 21.7347 51.3551 21.7347C51.9225 21.7347 52.3817 21.9301 52.3817 22.1642V36.4986C52.3817 36.7853 51.9661 36.9043 51.5138 36.9122C50.9554 36.9271 50.3256 36.7615 50.3256 36.4986L50.3266 22.1642Z" fill="#151616"/>
<path d="M51.5514 35.4482L55.1975 37.7057L51.5514 36.8755V35.4482Z" fill="#151616"/>
<path d="M30.3771 34.9038L33.5183 34.5725V38.4536L30.3771 38.778V34.9038ZM44.527 33.4239L47.6673 33.0995V36.9728L44.527 37.3031V33.4239ZM39.8087 33.9149L42.95 33.5905V37.4638L39.8087 37.795V33.9149ZM35.0904 34.4039L38.2396 34.0815V37.9547L35.0904 38.286V34.4039Z" fill="#FCBD00"/>
<path d="M51.4662 35.4482L47.829 37.7057L51.4662 36.8755V35.4482Z" fill="#151616"/>
<path d="M44.4615 34.261L45.502 33.9356V29.2322L47.6851 28.3931V27.9329C46.6357 28.3564 45.5853 28.7779 44.5349 29.2005L44.4615 34.261Z" fill="#313130"/>
<path d="M39.6659 35.8182L40.5258 35.5534L40.6409 31.1743L42.951 30.2836L42.9579 29.8611C41.976 30.2449 40.7907 30.7131 39.8167 31.1049L39.6659 35.8182Z" fill="#313130"/>
<path d="M34.8702 37.3655L35.6568 37.1235L35.8452 33.0687L38.2396 32.1254L38.2446 31.7327C37.3489 32.0868 35.9891 32.6452 35.0974 33.0013L34.8702 37.3655Z" fill="#313130"/>
<path d="M30.0756 38.9138L30.8611 38.6718L31.125 34.9702L33.5193 34.02L33.5273 33.6351C32.6366 33.9912 31.2688 34.5496 30.3781 34.9037L30.0756 38.9138Z" fill="#313130"/>
<path d="M71.848 34.9037C70.7976 34.4822 69.7492 34.0597 68.6988 33.6351C68.7454 34.3443 68.7811 35.0555 68.8287 35.7587C68.8645 36.4679 68.9121 37.1781 68.9488 37.8873C70.014 38.2265 71.0872 38.5756 72.1515 38.9149C72.0979 38.2513 72.0464 37.5778 71.9988 36.9133C71.9462 36.2408 71.9016 35.5673 71.848 34.9037ZM57.6891 29.2015C56.6387 28.779 55.5893 28.3574 54.5399 27.9339C54.5479 28.8177 54.5479 29.7014 54.5548 30.5852C54.5548 31.4679 54.5637 32.3427 54.5637 33.2265C55.6359 33.5746 56.6982 33.9198 57.7645 34.261C57.7496 33.4239 57.7417 32.5778 57.7278 31.7327C57.7129 30.8946 57.697 30.0496 57.6891 29.2015ZM62.4084 31.1039C61.36 30.6834 60.3116 30.2598 59.2612 29.8363C59.283 30.6605 59.2979 31.4848 59.3138 32.307C59.3306 33.1362 59.3445 33.9605 59.3654 34.7837C60.4306 35.1229 61.4949 35.4691 62.5611 35.8173C62.5294 35.0327 62.5076 34.2451 62.4848 33.4606C62.463 32.677 62.4322 31.8914 62.4084 31.1039Z" fill="#FCBD00"/>
<path d="M57.7646 34.261L56.7231 33.9356V29.2322L54.541 28.3931V27.9329C55.5904 28.3564 56.6398 28.7779 57.6902 29.2005L57.7646 34.261Z" fill="#313130"/>
<path d="M62.5611 35.8182L61.6992 35.5534L61.5861 31.1743L59.2661 30.2836V29.86C60.2491 30.2439 61.4284 30.7121 62.4074 31.1038L62.5611 35.8182Z" fill="#313130"/>
<path d="M67.3559 37.3655L66.5704 37.1235L66.3819 33.0687L63.9885 32.1254L63.9796 31.7327C64.8802 32.0868 66.2381 32.6452 67.1298 33.0013L67.3559 37.3655Z" fill="#313130"/>
<path d="M50.8651 83.0945L19.0132 65.847L19.5875 57.7811H3.38241L0.869019 40.7696H20.7956L21.5594 29.9731L29.4268 25.7141L30.2283 18.6986L37.2586 12.6135L40.7004 15.5811L41.4701 9.10326L51.365 0.970947L61.2568 9.10326L62.0652 15.839L65.7123 12.6889L72.7486 18.7759L73.6165 26.4252L80.1717 29.9741L80.9414 40.7706H100.869L98.3467 57.7831H82.1426L82.7149 65.848L50.8651 83.0945Z" fill="white"/>
<path d="M50.8651 83.0945L19.0132 65.847L19.5875 57.7811H3.38241L0.869019 40.7696H20.7956L21.5594 29.9731L29.4268 25.7141L30.2283 18.6986L37.2586 12.6135L40.7004 15.5811L41.4701 9.10326L51.365 0.970947L61.2568 9.10326L62.0652 15.839L65.7123 12.6889L72.7486 18.7759L73.6165 26.4252L80.1717 29.9741L80.9414 40.7706H100.869L98.3467 57.7831H82.1426L82.7149 65.848L50.8651 83.0945Z" stroke="#151616" stroke-width="1.5001"/>
<path d="M63.2276 66.9351H38.5569V68.5022H63.2276V66.9351Z" fill="#FBCF2D"/>
<path d="M37.9361 28.4328L31.8192 31.6861L32.7645 21.1227L37.3241 17.545L43.0779 21.7952L43.4568 25.6843L37.9361 28.4328ZM36.5167 28.1084L32.9599 30.0029L33.7524 21.6444L36.7061 18.8355L36.5167 28.1084Z" fill="#151616"/>
<path d="M65.4821 28.9842L60.0824 26.825L60.6408 20.4363L65.1945 16.8567L70.9473 21.1088L71.9372 31.212L65.4821 28.9842ZM64.3881 27.4131L61.231 25.1338L61.6238 20.9501L64.5775 18.1471L64.3881 27.4131Z" fill="#151616"/>
<path d="M51.3759 22.92L43.1473 25.7885L44.4993 10.7785L50.9702 5.68927L59.1402 11.7297L60.5526 26.092L51.3759 22.92ZM49.8226 20.6942L44.776 23.3881L45.8958 11.5115L50.0914 7.53117L49.8226 20.6942Z" fill="#151616"/>
<path d="M52.2229 20.9194L76.0694 32.0342L77.0196 42.9527H71.8629L74.8772 41.8736L74.1283 33.3703L51.3561 22.7533L29.0192 33.1679L28.1047 41.8736L31.0287 42.9527H25.9385L27.1029 31.816L51.357 20.5197L52.2229 20.9194Z" fill="#151616"/>
<path d="M50.3266 22.1642C50.3266 21.9311 50.7888 21.7347 51.3551 21.7347C51.9225 21.7347 52.3817 21.9301 52.3817 22.1642V36.4986C52.3817 36.7853 51.9661 36.9043 51.5138 36.9122C50.9554 36.9271 50.3256 36.7615 50.3256 36.4986L50.3266 22.1642Z" fill="#151616"/>
<path d="M51.5514 35.4482L55.1975 37.7057L51.5514 36.8755V35.4482Z" fill="#151616"/>
<path d="M30.3771 34.9038L33.5183 34.5725V38.4536L30.3771 38.778V34.9038ZM44.527 33.4239L47.6673 33.0995V36.9728L44.527 37.3031V33.4239ZM39.8087 33.9149L42.95 33.5905V37.4638L39.8087 37.795V33.9149ZM35.0904 34.4039L38.2396 34.0815V37.9547L35.0904 38.286V34.4039Z" fill="#FCBD00"/>
<path d="M51.4662 35.4482L47.829 37.7057L51.4662 36.8755V35.4482Z" fill="#151616"/>
<path d="M44.4615 34.261L45.502 33.9356V29.2322L47.6851 28.3931V27.9329C46.6357 28.3564 45.5853 28.7779 44.5349 29.2005L44.4615 34.261Z" fill="#313130"/>
<path d="M39.6659 35.8182L40.5258 35.5534L40.6409 31.1743L42.951 30.2836L42.9579 29.8611C41.976 30.2449 40.7907 30.7131 39.8167 31.1049L39.6659 35.8182Z" fill="#313130"/>
<path d="M34.8702 37.3655L35.6568 37.1235L35.8452 33.0687L38.2396 32.1254L38.2446 31.7327C37.3489 32.0868 35.9891 32.6452 35.0974 33.0013L34.8702 37.3655Z" fill="#313130"/>
<path d="M30.0756 38.9138L30.8611 38.6718L31.125 34.9702L33.5193 34.02L33.5273 33.6351C32.6366 33.9912 31.2688 34.5496 30.3781 34.9037L30.0756 38.9138Z" fill="#313130"/>
<path d="M71.848 34.9037C70.7976 34.4822 69.7492 34.0597 68.6988 33.6351C68.7454 34.3443 68.7811 35.0555 68.8287 35.7587C68.8645 36.4679 68.9121 37.1781 68.9488 37.8873C70.014 38.2265 71.0872 38.5756 72.1515 38.9149C72.0979 38.2513 72.0464 37.5778 71.9988 36.9133C71.9462 36.2408 71.9016 35.5673 71.848 34.9037ZM57.6891 29.2015C56.6387 28.779 55.5893 28.3574 54.5399 27.9339C54.5479 28.8177 54.5479 29.7014 54.5548 30.5852C54.5548 31.4679 54.5637 32.3427 54.5637 33.2265C55.6359 33.5746 56.6982 33.9198 57.7645 34.261C57.7496 33.4239 57.7417 32.5778 57.7278 31.7327C57.7129 30.8946 57.697 30.0496 57.6891 29.2015ZM62.4084 31.1039C61.36 30.6834 60.3116 30.2598 59.2612 29.8363C59.283 30.6605 59.2979 31.4848 59.3138 32.307C59.3306 33.1362 59.3445 33.9605 59.3654 34.7837C60.4306 35.1229 61.4949 35.4691 62.5611 35.8173C62.5294 35.0327 62.5076 34.2451 62.4848 33.4606C62.463 32.677 62.4322 31.8914 62.4084 31.1039Z" fill="#FCBD00"/>
<path d="M57.7646 34.261L56.7231 33.9356V29.2322L54.541 28.3931V27.9329C55.5904 28.3564 56.6398 28.7779 57.6902 29.2005L57.7646 34.261Z" fill="#313130"/>
<path d="M62.5611 35.8182L61.6992 35.5534L61.5861 31.1743L59.2661 30.2836V29.86C60.2491 30.2439 61.4284 30.7121 62.4074 31.1038L62.5611 35.8182Z" fill="#313130"/>
<path d="M67.3559 37.3655L66.5704 37.1235L66.3819 33.0687L63.9885 32.1254L63.9796 31.7327C64.8802 32.0868 66.2381 32.6452 67.1298 33.0013L67.3559 37.3655Z" fill="#313130"/>
<path d="M72.1506 38.9138L71.365 38.6718L71.1012 34.9702L68.6979 34.02V33.6351C69.5886 33.9912 70.9564 34.5496 71.847 34.9037L72.1506 38.9138Z" fill="#313130"/>
<path d="M50.8651 83.0945L19.0132 65.847L19.5875 57.7811H3.38241L0.869019 40.7696H20.7956L21.5594 29.9731L29.4268 25.7141L30.2283 18.6986L37.2586 12.6135L40.7004 15.5811L41.4701 9.10326L51.365 0.970947L61.2568 9.10326L62.0652 15.839L65.7123 12.6889L72.7486 18.7759L73.6165 26.4252L80.1717 29.9741L80.9414 40.7706H100.869L98.3467 57.7831H82.1426L82.7149 65.848L50.8651 83.0945Z" fill="white"/>
<path d="M50.8651 83.0945L19.0132 65.847L19.5875 57.7811H3.38241L0.869019 40.7696H20.7956L21.5594 29.9731L29.4268 25.7141L30.2283 18.6986L37.2586 12.6135L40.7004 15.5811L41.4701 9.10326L51.365 0.970947L61.2568 9.10326L62.0652 15.839L65.7123 12.6889L72.7486 18.7759L73.6165 26.4252L80.1717 29.9741L80.9414 40.7706H100.869L98.3467 57.7831H82.1426L82.7149 65.848L50.8651 83.0945Z" stroke="#151616" stroke-width="1.5001"/>
<path d="M63.2276 66.9351H38.5569V68.5022H63.2276V66.9351Z" fill="#FBCF2D"/>
<path d="M37.9361 28.4328L31.8192 31.6861L32.7645 21.1227L37.3241 17.545L43.0779 21.7952L43.4568 25.6843L37.9361 28.4328ZM36.5167 28.1084L32.9599 30.0029L33.7524 21.6444L36.7061 18.8355L36.5167 28.1084Z" fill="#151616"/>
<path d="M65.4821 28.9842L60.0824 26.825L60.6408 20.4363L65.1945 16.8567L70.9473 21.1088L71.9372 31.212L65.4821 28.9842ZM64.3881 27.4131L61.231 25.1338L61.6238 20.9501L64.5775 18.1471L64.3881 27.4131Z" fill="#151616"/>
<path d="M51.3759 22.92L43.1473 25.7885L44.4993 10.7785L50.9702 5.68927L59.1402 11.7297L60.5526 26.092L51.3759 22.92ZM49.8226 20.6942L44.776 23.3881L45.8958 11.5115L50.0914 7.53117L49.8226 20.6942Z" fill="#151616"/>
<path d="M52.2229 20.9194L76.0694 32.0342L77.0196 42.9527H71.8629L74.8772 41.8736L74.1283 33.3703L51.3561 22.7533L29.0192 33.1679L28.1047 41.8736L31.0287 42.9527H25.9385L27.1029 31.816L51.357 20.5197L52.2229 20.9194Z" fill="#151616"/>
<path d="M50.3266 22.1642C50.3266 21.9311 50.7888 21.7347 51.3551 21.7347C51.9225 21.7347 52.3817 21.9301 52.3817 22.1642V36.4986C52.3817 36.7853 51.9661 36.9043 51.5138 36.9122C50.9554 36.9271 50.3256 36.7615 50.3256 36.4986L50.3266 22.1642Z" fill="#151616"/>
<path d="M51.5514 35.4482L55.1975 37.7057L51.5514 36.8755V35.4482Z" fill="#151616"/>
<path d="M30.3771 34.9038L33.5183 34.5725V38.4536L30.3771 38.778V34.9038ZM44.527 33.4239L47.6673 33.0995V36.9728L44.527 37.3031V33.4239ZM39.8087 33.9149L42.95 33.5905V37.4638L39.8087 37.795V33.9149ZM35.0904 34.4039L38.2396 34.0815V37.9547L35.0904 38.286V34.4039Z" fill="#FCBD00"/>
<path d="M51.4662 35.4482L47.829 37.7057L51.4662 36.8755V35.4482Z" fill="#151616"/>
<path d="M44.4615 34.261L45.502 33.9356V29.2322L47.6851 28.3931V27.9329C46.6357 28.3564 45.5853 28.7779 44.5349 29.2005L44.4615 34.261Z" fill="#313130"/>
<path d="M39.6659 35.8182L40.5258 35.5534L40.6409 31.1743L42.951 30.2836L42.9579 29.8611C41.976 30.2449 40.7907 30.7131 39.8167 31.1049L39.6659 35.8182Z" fill="#313130"/>
<path d="M34.8702 37.3655L35.6568 37.1235L35.8452 33.0687L38.2396 32.1254L38.2446 31.7327C37.3489 32.0868 35.9891 32.6452 35.0974 33.0013L34.8702 37.3655Z" fill="#313130"/>
<path d="M30.0756 38.9138L30.8611 38.6718L31.125 34.9702L33.5193 34.02L33.5273 33.6351C32.6366 33.9912 31.2688 34.5496 30.3781 34.9037L30.0756 38.9138Z" fill="#313130"/>
<path d="M71.848 34.9037C70.7976 34.4822 69.7492 34.0597 68.6988 33.6351C68.7454 34.3443 68.7811 35.0555 68.8287 35.7587C68.8645 36.4679 68.9121 37.1781 68.9488 37.8873C70.014 38.2265 71.0872 38.5756 72.1515 38.9149C72.0979 38.2513 72.0464 37.5778 71.9988 36.9133C71.9462 36.2408 71.9016 35.5673 71.848 34.9037ZM57.6891 29.2015C56.6387 28.779 55.5893 28.3574 54.5399 27.9339C54.5479 28.8177 54.5479 29.7014 54.5548 30.5852C54.5548 31.4679 54.5637 32.3427 54.5637 33.2265C55.6359 33.5746 56.6982 33.9198 57.7645 34.261C57.7496 33.4239 57.7417 32.5778 57.7278 31.7327C57.7129 30.8946 57.697 30.0496 57.6891 29.2015ZM62.4084 31.1039C61.36 30.6834 60.3116 30.2598 59.2612 29.8363C59.283 30.6605 59.2979 31.4848 59.3138 32.307C59.3306 33.1362 59.3445 33.9605 59.3654 34.7837C60.4306 35.1229 61.4949 35.4691 62.5611 35.8173C62.5294 35.0327 62.5076 34.2451 62.4848 33.4606C62.463 32.677 62.4322 31.8914 62.4084 31.1039Z" fill="#FCBD00"/>
<path d="M57.7646 34.261L56.7231 33.9356V29.2322L54.541 28.3931V27.9329C55.5904 28.3564 56.6398 28.7779 57.6902 29.2005L57.7646 34.261Z" fill="#313130"/>
<path d="M62.5611 35.8182L61.6992 35.5534L61.5861 31.1743L59.2661 30.2836V29.86C60.2491 30.2439 61.4284 30.7121 62.4074 31.1038L62.5611 35.8182Z" fill="#313130"/>
<path d="M67.3559 37.3655L66.5704 37.1235L66.3819 33.0687L63.9885 32.1254L63.9796 31.7327C64.8802 32.0868 66.2381 32.6452 67.1298 33.0013L67.3559 37.3655Z" fill="#313130"/>
<path d="M72.1506 38.9138L71.365 38.6718L71.1012 34.9702L68.6979 34.02V33.6351C69.5886 33.9912 70.9564 34.5496 71.847 34.9037L72.1506 38.9138Z" fill="#313130"/>
<path d="M43.5162 75.4076L50.8422 79.3046L58.2107 75.3847L50.8868 71.4897L43.5162 75.4076Z" fill="#151616"/>
<path d="M50.8651 83.0945L19.0132 65.847L19.5875 57.7811H3.38241L0.869019 40.7696H20.7956L21.5594 29.9731L29.4268 25.7141L30.2283 18.6986L37.2586 12.6135L40.7004 15.5811L41.4701 9.10326L51.365 0.970947L61.2568 9.10326L62.0652 15.839L65.7123 12.6889L72.7486 18.7759L73.6165 26.4252L80.1717 29.9741L80.9414 40.7706H100.869L98.3467 57.7831H82.1426L82.7149 65.848L50.8651 83.0945Z" fill="white"/>
<path d="M50.8651 83.0945L19.0132 65.847L19.5875 57.7811H3.38241L0.869019 40.7696H20.7956L21.5594 29.9731L29.4268 25.7141L30.2283 18.6986L37.2586 12.6135L40.7004 15.5811L41.4701 9.10326L51.365 0.970947L61.2568 9.10326L62.0652 15.839L65.7123 12.6889L72.7486 18.7759L73.6165 26.4252L80.1717 29.9741L80.9414 40.7706H100.869L98.3467 57.7831H82.1426L82.7149 65.848L50.8651 83.0945Z" stroke="#151616" stroke-width="1.5001"/>
<path d="M63.2276 66.9351H38.5569V68.5022H63.2276V66.9351Z" fill="#FBCF2D"/>
<path d="M37.9361 28.4328L31.8192 31.6861L32.7645 21.1227L37.3241 17.545L43.0779 21.7952L43.4568 25.6843L37.9361 28.4328ZM36.5167 28.1084L32.9599 30.0029L33.7524 21.6444L36.7061 18.8355L36.5167 28.1084Z" fill="#151616"/>
<path d="M65.4821 28.9842L60.0824 26.825L60.6408 20.4363L65.1945 16.8567L70.9473 21.1088L71.9372 31.212L65.4821 28.9842ZM64.3881 27.4131L61.231 25.1338L61.6238 20.9501L64.5775 18.1471L64.3881 27.4131Z" fill="#151616"/>
<path d="M51.3759 22.92L43.1473 25.7885L44.4993 10.7785L50.9702 5.68927L59.1402 11.7297L60.5526 26.092L51.3759 22.92ZM49.8226 20.6942L44.776 23.3881L45.8958 11.5115L50.0914 7.53117L49.8226 20.6942Z" fill="#151616"/>
<path d="M52.2229 20.9194L76.0694 32.0342L77.0196 42.9527H71.8629L74.8772 41.8736L74.1283 33.3703L51.3561 22.7533L29.0192 33.1679L28.1047 41.8736L31.0287 42.9527H25.9385L27.1029 31.816L51.357 20.5197L52.2229 20.9194Z" fill="#151616"/>
<path d="M50.3266 22.1642C50.3266 21.9311 50.7888 21.7347 51.3551 21.7347C51.9225 21.7347 52.3817 21.9301 52.3817 22.1642V36.4986C52.3817 36.7853 51.9661 36.9043 51.5138 36.9122C50.9554 36.9271 50.3256 36.7615 50.3256 36.4986L50.3266 22.1642Z" fill="#151616"/>
<path d="M51.5514 35.4482L55.1975 37.7057L51.5514 36.8755V35.4482Z" fill="#151616"/>
<path d="M30.3771 34.9038L33.5183 34.5725V38.4536L30.3771 38.778V34.9038ZM44.527 33.4239L47.6673 33.0995V36.9728L44.527 37.3031V33.4239ZM39.8087 33.9149L42.95 33.5905V37.4638L39.8087 37.795V33.9149ZM35.0904 34.4039L38.2396 34.0815V37.9547L35.0904 38.286V34.4039Z" fill="#FCBD00"/>
<path d="M51.4662 35.4482L47.829 37.7057L51.4662 36.8755V35.4482Z" fill="#151616"/>
<path d="M44.4615 34.261L45.502 33.9356V29.2322L47.6851 28.3931V27.9329C46.6357 28.3564 45.5853 28.7779 44.5349 29.2005L44.4615 34.261Z" fill="#313130"/>
<path d="M39.6659 35.8182L40.5258 35.5534L40.6409 31.1743L42.951 30.2836L42.9579 29.8611C41.976 30.2449 40.7907 30.7131 39.8167 31.1049L39.6659 35.8182Z" fill="#313130"/>
<path d="M34.8702 37.3655L35.6568 37.1235L35.8452 33.0687L38.2396 32.1254L38.2446 31.7327C37.3489 32.0868 35.9891 32.6452 35.0974 33.0013L34.8702 37.3655Z" fill="#313130"/>
<path d="M30.0756 38.9138L30.8611 38.6718L31.125 34.9702L33.5193 34.02L33.5273 33.6351C32.6366 33.9912 31.2688 34.5496 30.3781 34.9037L30.0756 38.9138Z" fill="#313130"/>
<path d="M71.848 34.9037C70.7976 34.4822 69.7492 34.0597 68.6988 33.6351C68.7454 34.3443 68.7811 35.0555 68.8287 35.7587C68.8645 36.4679 68.9121 37.1781 68.9488 37.8873C70.014 38.2265 71.0872 38.5756 72.1515 38.9149C72.0979 38.2513 72.0464 37.5778 71.9988 36.9133C71.9462 36.2408 71.9016 35.5673 71.848 34.9037ZM57.6891 29.2015C56.6387 28.779 55.5893 28.3574 54.5399 27.9339C54.5479 28.8177 54.5479 29.7014 54.5548 30.5852C54.5548 31.4679 54.5637 32.3427 54.5637 33.2265C55.6359 33.5746 56.6982 33.9198 57.7645 34.261C57.7496 33.4239 57.7417 32.5778 57.7278 31.7327C57.7129 30.8946 57.697 30.0496 57.6891 29.2015ZM62.4084 31.1039C61.36 30.6834 60.3116 30.2598 59.2612 29.8363C59.283 30.6605 59.2979 31.4848 59.3138 32.307C59.3306 33.1362 59.3445 33.9605 59.3654 34.7837C60.4306 35.1229 61.4949 35.4691 62.5611 35.8173C62.5294 35.0327 62.5076 34.2451 62.4848 33.4606C62.463 32.677 62.4322 31.8914 62.4084 31.1039Z" fill="#FCBD00"/>
<path d="M57.7646 34.261L56.7231 33.9356V29.2322L54.541 28.3931V27.9329C55.5904 28.3564 56.6398 28.7779 57.6902 29.2005L57.7646 34.261Z" fill="#313130"/>
<path d="M62.5611 35.8182L61.6992 35.5534L61.5861 31.1743L59.2661 30.2836V29.86C60.2491 30.2439 61.4284 30.7121 62.4074 31.1038L62.5611 35.8182Z" fill="#313130"/>
<path d="M67.3559 37.3655L66.5704 37.1235L66.3819 33.0687L63.9885 32.1254L63.9796 31.7327C64.8802 32.0868 66.2381 32.6452 67.1298 33.0013L67.3559 37.3655Z" fill="#313130"/>
<path d="M72.1506 38.9138L71.365 38.6718L71.1012 34.9702L68.6979 34.02V33.6351C69.5886 33.9912 70.9564 34.5496 71.847 34.9037L72.1506 38.9138Z" fill="#313130"/>
<path d="M43.5162 75.4076L50.8422 79.3046L58.2107 75.3847L50.8868 71.4897L43.5162 75.4076Z" fill="#151616"/>
<path d="M15.0636 44.8481V53.7442H12.7972V48.9554L10.6379 52.5281H10.4108L8.26042 48.9634V53.7442H5.98706V44.8481H8.26141L10.5258 48.647L12.7972 44.8481H15.0636ZM18.7504 51.6067H22.1932V53.7442H16.4691V44.8481H22.1257V46.9707H18.7504V48.2026H21.8083V50.3014H18.7504V51.6067ZM29.3743 44.8481V47.0451H27.1763V53.7442H24.897V47.0451H22.701V44.8481H29.3743ZM34.9922 53.7442L34.6074 52.4607H31.6447L31.2608 53.7442H28.801L31.7369 44.8481H34.5082L37.4401 53.7442H34.9922ZM32.2279 50.5028H34.0251L33.1186 47.4766L32.2279 50.5028ZM37.6732 53.7442V51.6206C38.1483 51.6811 38.4866 51.6127 38.7068 51.4093C38.917 51.2129 39.0321 50.7973 39.0321 50.1715V44.8481H45.3582V53.7442H43.0849V47.0451H41.3045V50.2776C41.3045 51.0027 41.1983 51.6206 40.993 52.1274C40.7837 52.6254 40.503 52.9953 40.141 53.2373C39.777 53.4704 39.4001 53.6301 38.9924 53.7055C38.5858 53.7809 38.1483 53.7967 37.6732 53.7442ZM46.1229 53.7442V51.6206C46.598 51.6811 46.9373 51.6127 47.1565 51.4093C47.3747 51.2129 47.4818 50.7973 47.4818 50.1715V44.8481H53.8089V53.7442H51.5346V47.0451H49.7552V50.2776C49.7552 51.0027 49.648 51.6206 49.4437 52.1274C49.2334 52.6254 48.9547 52.9953 48.5907 53.2373C48.2356 53.4704 47.8508 53.6301 47.4431 53.7055C47.0345 53.7809 46.598 53.7967 46.1229 53.7442ZM62.8399 52.5946C61.9323 53.4853 60.8313 53.9326 59.525 53.9326C58.2247 53.9326 57.1158 53.4883 56.2162 52.5946C55.3126 51.697 54.8663 50.601 54.8663 49.2966C54.8663 47.9904 55.3126 46.8943 56.2162 45.9957C57.1158 45.106 58.2247 44.6587 59.525 44.6587C60.8303 44.6587 61.9333 45.104 62.8399 45.9957C63.7385 46.8943 64.1908 47.9913 64.1908 49.2966C64.1898 50.6029 63.7385 51.6989 62.8399 52.5946ZM57.8101 51.0324C58.2713 51.4857 58.8456 51.7148 59.5241 51.7148C60.2124 51.7148 60.7857 51.4877 61.2449 51.0324C61.6982 50.5791 61.9234 49.9979 61.9234 49.2966C61.9234 48.5954 61.6982 48.0142 61.2449 47.5609C60.7847 47.1076 60.2114 46.8805 59.5241 46.8805C58.8456 46.8805 58.2713 47.1076 57.8101 47.5609C57.3568 48.0142 57.1227 48.5954 57.1227 49.2966C57.1237 49.9979 57.3578 50.5791 57.8101 51.0324ZM68.919 48.1243C69.8236 48.1243 70.5487 48.3821 71.0942 48.888C71.6367 49.4028 71.9095 50.0733 71.9095 50.9184C71.9095 51.7723 71.6367 52.4538 71.0942 52.9646C70.5487 53.4853 69.8236 53.7422 68.919 53.7422H65.2481V44.8481H71.1458V47.0451H67.5215V48.1243H68.919ZM68.8288 51.6573C69.0777 51.6573 69.2741 51.5958 69.4239 51.4758C69.5697 51.3478 69.6451 51.1653 69.6451 50.9174C69.6451 50.6763 69.5697 50.4869 69.4239 50.3589C69.2741 50.2379 69.0787 50.1725 68.8288 50.1725H67.5225V51.6603H68.8288V51.6573ZM78.0025 53.7442L77.6246 52.4607H74.6629L74.2791 53.7442H71.8182L74.7552 44.8481H77.5185L80.4544 53.7442H78.0025ZM75.2461 50.5028H77.0444L76.1368 47.4766L75.2461 50.5028ZM86.112 49.1598C86.9125 49.6051 87.3053 50.2994 87.3053 51.2437C87.3053 52.0511 87.0047 52.7107 86.3937 53.2006C85.7807 53.6906 84.9803 53.9326 83.9765 53.9326C82.2547 53.9326 81.1041 53.2393 80.5308 51.8477L82.4808 50.7299C82.7298 51.4321 83.2356 51.7872 83.9765 51.7872C84.6857 51.7872 85.0329 51.5204 85.0329 51.0007C85.0329 50.5414 84.7522 50.2816 84.1779 50.2369L82.8349 50.2211V48.2502H83.7097C84.3961 48.2502 84.7373 48.0092 84.7373 47.5192C84.7373 47.0292 84.4358 46.7793 83.8248 46.7793C83.2128 46.7793 82.7883 47.0818 82.5542 47.6759L80.6439 46.576C80.9176 45.9719 81.3322 45.5028 81.8916 45.1635C82.4421 44.8223 83.0987 44.6557 83.8605 44.6557C84.7978 44.6557 85.5516 44.8977 86.1418 45.3887C86.724 45.8717 87.0166 46.5204 87.0166 47.3208C87.0176 48.1104 86.7171 48.7154 86.112 49.1598ZM93.6482 53.7442L93.2693 52.4607H90.3106L89.9268 53.7442H87.463L90.3939 44.8481H93.1662L96.1021 53.7442H93.6482ZM90.8928 50.5028H92.6831L91.7845 47.4766L90.8928 50.5028Z" fill="#151616"/>
<path d="M50.8651 83.0945L19.0132 65.847L19.5875 57.7811H3.38241L0.869019 40.7696H20.7956L21.5594 29.9731L29.4268 25.7141L30.2283 18.6986L37.2586 12.6135L40.7004 15.5811L41.4701 9.10326L51.365 0.970947L61.2568 9.10326L62.0652 15.839L65.7123 12.6889L72.7486 18.7759L73.6165 26.4252L80.1717 29.9741L80.9414 40.7706H100.869L98.3467 57.7831H82.1426L82.7149 65.848L50.8651 83.0945Z" fill="white"/>
<path d="M50.8651 83.0945L19.0132 65.847L19.5875 57.7811H3.38241L0.869019 40.7696H20.7956L21.5594 29.9731L29.4268 25.7141L30.2283 18.6986L37.2586 12.6135L40.7004 15.5811L41.4701 9.10326L51.365 0.970947L61.2568 9.10326L62.0652 15.839L65.7123 12.6889L72.7486 18.7759L73.6165 26.4252L80.1717 29.9741L80.9414 40.7706H100.869L98.3467 57.7831H82.1426L82.7149 65.848L50.8651 83.0945Z" stroke="#151616" stroke-width="1.5001"/>
<path d="M63.2276 66.9351H38.5569V68.5022H63.2276V66.9351Z" fill="#FBCF2D"/>
<path d="M37.9361 28.4328L31.8192 31.6861L32.7645 21.1227L37.3241 17.545L43.0779 21.7952L43.4568 25.6843L37.9361 28.4328ZM36.5167 28.1084L32.9599 30.0029L33.7524 21.6444L36.7061 18.8355L36.5167 28.1084Z" fill="#151616"/>
<path d="M65.4821 28.9842L60.0824 26.825L60.6408 20.4363L65.1945 16.8567L70.9473 21.1088L71.9372 31.212L65.4821 28.9842ZM64.3881 27.4131L61.231 25.1338L61.6238 20.9501L64.5775 18.1471L64.3881 27.4131Z" fill="#151616"/>
<path d="M51.3759 22.92L43.1473 25.7885L44.4993 10.7785L50.9702 5.68927L59.1402 11.7297L60.5526 26.092L51.3759 22.92ZM49.8226 20.6942L44.776 23.3881L45.8958 11.5115L50.0914 7.53117L49.8226 20.6942Z" fill="#151616"/>
<path d="M52.2229 20.9194L76.0694 32.0342L77.0196 42.9527H71.8629L74.8772 41.8736L74.1283 33.3703L51.3561 22.7533L29.0192 33.1679L28.1047 41.8736L31.0287 42.9527H25.9385L27.1029 31.816L51.357 20.5197L52.2229 20.9194Z" fill="#151616"/>
<path d="M50.3266 22.1642C50.3266 21.9311 50.7888 21.7347 51.3551 21.7347C51.9225 21.7347 52.3817 21.9301 52.3817 22.1642V36.4986C52.3817 36.7853 51.9661 36.9043 51.5138 36.9122C50.9554 36.9271 50.3256 36.7615 50.3256 36.4986L50.3266 22.1642Z" fill="#151616"/>
<path d="M51.5514 35.4482L55.1975 37.7057L51.5514 36.8755V35.4482Z" fill="#151616"/>
<path d="M30.3771 34.9038L33.5183 34.5725V38.4536L30.3771 38.778V34.9038ZM44.527 33.4239L47.6673 33.0995V36.9728L44.527 37.3031V33.4239ZM39.8087 33.9149L42.95 33.5905V37.4638L39.8087 37.795V33.9149ZM35.0904 34.4039L38.2396 34.0815V37.9547L35.0904 38.286V34.4039Z" fill="#FCBD00"/>
<path d="M51.4662 35.4482L47.829 37.7057L51.4662 36.8755V35.4482Z" fill="#151616"/>
<path d="M44.4615 34.261L45.502 33.9356V29.2322L47.6851 28.3931V27.9329C46.6357 28.3564 45.5853 28.7779 44.5349 29.2005L44.4615 34.261Z" fill="#313130"/>
<path d="M39.6659 35.8182L40.5258 35.5534L40.6409 31.1743L42.951 30.2836L42.9579 29.8611C41.976 30.2449 40.7907 30.7131 39.8167 31.1049L39.6659 35.8182Z" fill="#313130"/>
<path d="M34.8702 37.3655L35.6568 37.1235L35.8452 33.0687L38.2396 32.1254L38.2446 31.7327C37.3489 32.0868 35.9891 32.6452 35.0974 33.0013L34.8702 37.3655Z" fill="#313130"/>
<path d="M30.0756 38.9138L30.8611 38.6718L31.125 34.9702L33.5193 34.02L33.5273 33.6351C32.6366 33.9912 31.2688 34.5496 30.3781 34.9037L30.0756 38.9138Z" fill="#313130"/>
<path d="M71.848 34.9037C70.7976 34.4822 69.7492 34.0597 68.6988 33.6351C68.7454 34.3443 68.7811 35.0555 68.8287 35.7587C68.8645 36.4679 68.9121 37.1781 68.9488 37.8873C70.014 38.2265 71.0872 38.5756 72.1515 38.9149C72.0979 38.2513 72.0464 37.5778 71.9988 36.9133C71.9462 36.2408 71.9016 35.5673 71.848 34.9037ZM57.6891 29.2015C56.6387 28.779 55.5893 28.3574 54.5399 27.9339C54.5479 28.8177 54.5479 29.7014 54.5548 30.5852C54.5548 31.4679 54.5637 32.3427 54.5637 33.2265C55.6359 33.5746 56.6982 33.9198 57.7645 34.261C57.7496 33.4239 57.7417 32.5778 57.7278 31.7327C57.7129 30.8946 57.697 30.0496 57.6891 29.2015ZM62.4084 31.1039C61.36 30.6834 60.3116 30.2598 59.2612 29.8363C59.283 30.6605 59.2979 31.4848 59.3138 32.307C59.3306 33.1362 59.3445 33.9605 59.3654 34.7837C60.4306 35.1229 61.4949 35.4691 62.5611 35.8173C62.5294 35.0327 62.5076 34.2451 62.4848 33.4606C62.463 32.677 62.4322 31.8914 62.4084 31.1039Z" fill="#FCBD00"/>
<path d="M57.7646 34.261L56.7231 33.9356V29.2322L54.541 28.3931V27.9329C55.5904 28.3564 56.6398 28.7779 57.6902 29.2005L57.7646 34.261Z" fill="#313130"/>
<path d="M62.5611 35.8182L61.6992 35.5534L61.5861 31.1743L59.2661 30.2836V29.86C60.2491 30.2439 61.4284 30.7121 62.4074 31.1038L62.5611 35.8182Z" fill="#313130"/>
<path d="M67.3559 37.3655L66.5704 37.1235L66.3819 33.0687L63.9885 32.1254L63.9796 31.7327C64.8802 32.0868 66.2381 32.6452 67.1298 33.0013L67.3559 37.3655Z" fill="#313130"/>
<path d="M72.1506 38.9138L71.365 38.6718L71.1012 34.9702L68.6979 34.02V33.6351C69.5886 33.9912 70.9564 34.5496 71.847 34.9037L72.1506 38.9138Z" fill="#313130"/>
<path d="M43.5162 75.4076L50.8422 79.3046L58.2107 75.3847L50.8868 71.4897L43.5162 75.4076Z" fill="#151616"/>
<path d="M15.0636 44.8481V53.7442H12.7972V48.9554L10.6379 52.5281H10.4108L8.26042 48.9634V53.7442H5.98706V44.8481H8.26141L10.5258 48.647L12.7972 44.8481H15.0636ZM18.7504 51.6067H22.1932V53.7442H16.4691V44.8481H22.1257V46.9707H18.7504V48.2026H21.8083V50.3014H18.7504V51.6067ZM29.3743 44.8481V47.0451H27.1763V53.7442H24.897V47.0451H22.701V44.8481H29.3743ZM34.9922 53.7442L34.6074 52.4607H31.6447L31.2608 53.7442H28.801L31.7369 44.8481H34.5082L37.4401 53.7442H34.9922ZM32.2279 50.5028H34.0251L33.1186 47.4766L32.2279 50.5028ZM37.6732 53.7442V51.6206C38.1483 51.6811 38.4866 51.6127 38.7068 51.4093C38.917 51.2129 39.0321 50.7973 39.0321 50.1715V44.8481H45.3582V53.7442H43.0849V47.0451H41.3045V50.2776C41.3045 51.0027 41.1983 51.6206 40.993 52.1274C40.7837 52.6254 40.503 52.9953 40.141 53.2373C39.777 53.4704 39.4001 53.6301 38.9924 53.7055C38.5858 53.7809 38.1483 53.7967 37.6732 53.7442ZM46.1229 53.7442V51.6206C46.598 51.6811 46.9373 51.6127 47.1565 51.4093C47.3747 51.2129 47.4818 50.7973 47.4818 50.1715V44.8481H53.8089V53.7442H51.5346V47.0451H49.7552V50.2776C49.7552 51.0027 49.648 51.6206 49.4437 52.1274C49.2334 52.6254 48.9547 52.9953 48.5907 53.2373C48.2356 53.4704 47.8508 53.6301 47.4431 53.7055C47.0345 53.7809 46.598 53.7967 46.1229 53.7442ZM62.8399 52.5946C61.9323 53.4853 60.8313 53.9326 59.525 53.9326C58.2247 53.9326 57.1158 53.4883 56.2162 52.5946C55.3126 51.697 54.8663 50.601 54.8663 49.2966C54.8663 47.9904 55.3126 46.8943 56.2162 45.9957C57.1158 45.106 58.2247 44.6587 59.525 44.6587C60.8303 44.6587 61.9333 45.104 62.8399 45.9957C63.7385 46.8943 64.1908 47.9913 64.1908 49.2966C64.1898 50.6029 63.7385 51.6989 62.8399 52.5946ZM57.8101 51.0324C58.2713 51.4857 58.8456 51.7148 59.5241 51.7148C60.2124 51.7148 60.7857 51.4877 61.2449 51.0324C61.6982 50.5791 61.9234 49.9979 61.9234 49.2966C61.9234 48.5954 61.6982 48.0142 61.2449 47.5609C60.7847 47.1076 60.2114 46.8805 59.5241 46.8805C58.8456 46.8805 58.2713 47.1076 57.8101 47.5609C57.3568 48.0142 57.1227 48.5954 57.1227 49.2966C57.1237 49.9979 57.3578 50.5791 57.8101 51.0324ZM68.919 48.1243C69.8236 48.1243 70.5487 48.3821 71.0942 48.888C71.6367 49.4028 71.9095 50.0733 71.9095 50.9184C71.9095 51.7723 71.6367 52.4538 71.0942 52.9646C70.5487 53.4853 69.8236 53.7422 68.919 53.7422H65.2481V44.8481H71.1458V47.0451H67.5215V48.1243H68.919ZM68.8288 51.6573C69.0777 51.6573 69.2741 51.5958 69.4239 51.4758C69.5697 51.3478 69.6451 51.1653 69.6451 50.9174C69.6451 50.6763 69.5697 50.4869 69.4239 50.3589C69.2741 50.2379 69.0787 50.1725 68.8288 50.1725H67.5225V51.6603H68.8288V51.6573ZM78.0025 53.7442L77.6246 52.4607H74.6629L74.2791 53.7442H71.8182L74.7552 44.8481H77.5185L80.4544 53.7442H78.0025ZM75.2461 50.5028H77.0444L76.1368 47.4766L75.2461 50.5028ZM86.112 49.1598C86.9125 49.6051 87.3053 50.2994 87.3053 51.2437C87.3053 52.0511 87.0047 52.7107 86.3937 53.2006C85.7807 53.6906 84.9803 53.9326 83.9765 53.9326C82.2547 53.9326 81.1041 53.2393 80.5308 51.8477L82.4808 50.7299C82.7298 51.4321 83.2356 51.7872 83.9765 51.7872C84.6857 51.7872 85.0329 51.5204 85.0329 51.0007C85.0329 50.5414 84.7522 50.2816 84.1779 50.2369L82.8349 50.2211V48.2502H83.7097C84.3961 48.2502 84.7373 48.0092 84.7373 47.5192C84.7373 47.0292 84.4358 46.7793 83.8248 46.7793C83.2128 46.7793 82.7883 47.0818 82.5542 47.6759L80.6439 46.576C80.9176 45.9719 81.3322 45.5028 81.8916 45.1635C82.4421 44.8223 83.0987 44.6557 83.8605 44.6557C84.7978 44.6557 85.5516 44.8977 86.1418 45.3887C86.724 45.8717 87.0166 46.5204 87.0166 47.3208C87.0176 48.1104 86.7171 48.7154 86.112 49.1598ZM93.6482 53.7442L93.2693 52.4607H90.3106L89.9268 53.7442H87.463L90.3939 44.8481H93.1662L96.1021 53.7442H93.6482ZM90.8928 50.5028H92.6831L91.7845 47.4766L90.8928 50.5028Z" fill="#151616"/>
<path d="M30.6192 59.9881C31.1617 60.3045 31.4424 60.7954 31.4424 61.453C31.4424 62.0283 31.2371 62.4985 30.8453 62.8426C30.4466 63.1908 29.91 63.3634 29.2444 63.3634H26.496V56.8299H29.0709C29.7205 56.8299 30.2432 56.9966 30.635 57.3289C31.0278 57.6621 31.2242 58.1154 31.2242 58.6877C31.2242 59.2332 31.0189 59.6707 30.6192 59.9881ZM29.0252 58.3267H28.1653V59.3523H29.0252C29.1691 59.3523 29.299 59.3076 29.4031 59.2184C29.5023 59.1251 29.5529 58.9962 29.5529 58.8375C29.5529 58.6818 29.5013 58.5518 29.4031 58.4596C29.3049 58.3723 29.177 58.3267 29.0252 58.3267ZM29.2008 61.8686C29.3664 61.8686 29.5013 61.8131 29.6084 61.7169C29.7116 61.6137 29.7671 61.4828 29.7671 61.3181C29.7671 61.1515 29.7126 61.0146 29.6084 60.9184C29.5023 60.8192 29.3664 60.7687 29.2008 60.7687H28.1663V61.8696H29.2008V61.8686ZM37.717 62.5183C37.0534 63.1749 36.243 63.5003 35.2859 63.5003C34.3268 63.5003 33.5194 63.1749 32.8528 62.5183C32.1903 61.8617 31.859 61.0533 31.859 60.0952C31.859 59.138 32.1903 58.3376 32.8528 57.678C33.5184 57.0204 34.3268 56.6881 35.2859 56.6881C36.243 56.6881 37.0534 57.0194 37.717 57.678C38.3815 58.3346 38.7068 59.136 38.7068 60.0952C38.7068 61.0543 38.3825 61.8617 37.717 62.5183ZM34.0242 61.3697C34.3575 61.701 34.78 61.8676 35.2859 61.8676C35.7917 61.8676 36.2083 61.701 36.5475 61.3697C36.8778 61.0384 37.0435 60.6139 37.0435 60.0952C37.0435 59.5794 36.8778 59.1589 36.5475 58.8266C36.2083 58.4953 35.7908 58.3287 35.2859 58.3287C34.781 58.3287 34.3575 58.4953 34.0242 58.8266C33.685 59.1589 33.5184 59.5824 33.5184 60.0952C33.5194 60.6159 33.685 61.0384 34.0242 61.3697ZM38.691 63.3634V61.8081C39.0391 61.8458 39.294 61.8002 39.4527 61.6494C39.6124 61.5056 39.6888 61.2031 39.6888 60.7439V56.8339H44.3397V63.3663H42.6644V58.4507H41.3581V60.8222C41.3581 61.3519 41.2827 61.8032 41.131 62.1741C40.9802 62.5441 40.7679 62.8149 40.5031 62.9964C40.2403 63.171 39.9596 63.283 39.658 63.3366C39.3645 63.3941 39.0401 63.3991 38.691 63.3634ZM50.6896 63.3634H48.8249L47.7983 61.6266L46.7727 63.3634H44.8991L46.8689 60.0337L44.9744 56.8309H46.8481L47.7983 58.4497L48.7495 56.8309H50.6301L48.7336 60.0406L50.6896 63.3634ZM56.4503 62.5183C55.7947 63.1749 54.9794 63.5003 54.0203 63.5003C53.0671 63.5003 52.2538 63.1749 51.5892 62.5183C50.9306 61.8617 50.5993 61.0533 50.5993 60.0952C50.5993 59.138 50.9306 58.3376 51.5892 57.678C52.2528 57.0204 53.0681 56.6881 54.0203 56.6881C54.9794 56.6881 55.7947 57.0194 56.4503 57.678C57.1149 58.3346 57.4472 59.136 57.4472 60.0952C57.4482 61.0533 57.1159 61.8617 56.4503 62.5183ZM52.7666 61.3697C53.0978 61.701 53.5233 61.8676 54.0213 61.8676C54.5251 61.8676 54.9487 61.701 55.2819 61.3697C55.6221 61.0384 55.7888 60.6139 55.7888 60.0952C55.7888 59.5794 55.6231 59.1589 55.2819 58.8266C54.9497 58.4953 54.5251 58.3287 54.0213 58.3287C53.5233 58.3287 53.0988 58.4953 52.7666 58.8266C52.4263 59.1589 52.2597 59.5824 52.2597 60.0952C52.2597 60.6159 52.4263 61.0384 52.7666 61.3697ZM61.7301 56.8299H63.3914V63.3634H61.7301V60.849H59.8961V63.3634H58.2248V56.8299H59.8961V59.2481H61.7301V56.8299ZM69.8386 63.3634H67.9729L66.1022 60.4403V63.3634H64.424V56.8299H66.1022V59.5735L67.8836 56.8299H69.7473L67.6713 60.0009L69.8386 63.3634ZM74.536 63.3634L74.2563 62.4201H72.0822L71.8044 63.3634H69.9893L72.1437 56.8299H74.181L76.3343 63.3634H74.536ZM72.5126 60.9849H73.8269L73.1623 58.7641L72.5126 60.9849Z" fill="#151616"/>
<path d="M50.8651 83.0945L19.0132 65.847L19.5875 57.7811H3.38241L0.869019 40.7696H20.7956L21.5594 29.9731L29.4268 25.7141L30.2283 18.6986L37.2586 12.6135L40.7004 15.5811L41.4701 9.10326L51.365 0.970947L61.2568 9.10326L62.0652 15.839L65.7123 12.6889L72.7486 18.7759L73.6165 26.4252L80.1717 29.9741L80.9414 40.7706H100.869L98.3467 57.7831H82.1426L82.7149 65.848L50.8651 83.0945Z" fill="white"/>
<path d="M50.8651 83.0945L19.0132 65.847L19.5875 57.7811H3.38241L0.869019 40.7696H20.7956L21.5594 29.9731L29.4268 25.7141L30.2283 18.6986L37.2586 12.6135L40.7004 15.5811L41.4701 9.10326L51.365 0.970947L61.2568 9.10326L62.0652 15.839L65.7123 12.6889L72.7486 18.7759L73.6165 26.4252L80.1717 29.9741L80.9414 40.7706H100.869L98.3467 57.7831H82.1426L82.7149 65.848L50.8651 83.0945Z" stroke="#151616" stroke-width="1.5001"/>
<path d="M63.2276 66.9351H38.5569V68.5022H63.2276V66.9351Z" fill="#FBCF2D"/>
<path d="M37.9361 28.4328L31.8192 31.6861L32.7645 21.1227L37.3241 17.545L43.0779 21.7952L43.4568 25.6843L37.9361 28.4328ZM36.5167 28.1084L32.9599 30.0029L33.7524 21.6444L36.7061 18.8355L36.5167 28.1084Z" fill="#151616"/>
<path d="M65.4821 28.9842L60.0824 26.825L60.6408 20.4363L65.1945 16.8567L70.9473 21.1088L71.9372 31.212L65.4821 28.9842ZM64.3881 27.4131L61.231 25.1338L61.6238 20.9501L64.5775 18.1471L64.3881 27.4131Z" fill="#151616"/>
<path d="M51.3759 22.92L43.1473 25.7885L44.4993 10.7785L50.9702 5.68927L59.1402 11.7297L60.5526 26.092L51.3759 22.92ZM49.8226 20.6942L44.776 23.3881L45.8958 11.5115L50.0914 7.53117L49.8226 20.6942Z" fill="#151616"/>
<path d="M52.2229 20.9194L76.0694 32.0342L77.0196 42.9527H71.8629L74.8772 41.8736L74.1283 33.3703L51.3561 22.7533L29.0192 33.1679L28.1047 41.8736L31.0287 42.9527H25.9385L27.1029 31.816L51.357 20.5197L52.2229 20.9194Z" fill="#151616"/>
<path d="M50.3266 22.1642C50.3266 21.9311 50.7888 21.7347 51.3551 21.7347C51.9225 21.7347 52.3817 21.9301 52.3817 22.1642V36.4986C52.3817 36.7853 51.9661 36.9043 51.5138 36.9122C50.9554 36.9271 50.3256 36.7615 50.3256 36.4986L50.3266 22.1642Z" fill="#151616"/>
<path d="M51.5514 35.4482L55.1975 37.7057L51.5514 36.8755V35.4482Z" fill="#151616"/>
<path d="M30.3771 34.9038L33.5183 34.5725V38.4536L30.3771 38.778V34.9038ZM44.527 33.4239L47.6673 33.0995V36.9728L44.527 37.3031V33.4239ZM39.8087 33.9149L42.95 33.5905V37.4638L39.8087 37.795V33.9149ZM35.0904 34.4039L38.2396 34.0815V37.9547L35.0904 38.286V34.4039Z" fill="#FCBD00"/>
<path d="M51.4662 35.4482L47.829 37.7057L51.4662 36.8755V35.4482Z" fill="#151616"/>
<path d="M44.4615 34.261L45.502 33.9356V29.2322L47.6851 28.3931V27.9329C46.6357 28.3564 45.5853 28.7779 44.5349 29.2005L44.4615 34.261Z" fill="#313130"/>
<path d="M39.6659 35.8182L40.5258 35.5534L40.6409 31.1743L42.951 30.2836L42.9579 29.8611C41.976 30.2449 40.7907 30.7131 39.8167 31.1049L39.6659 35.8182Z" fill="#313130"/>
<path d="M34.8702 37.3655L35.6568 37.1235L35.8452 33.0687L38.2396 32.1254L38.2446 31.7327C37.3489 32.0868 35.9891 32.6452 35.0974 33.0013L34.8702 37.3655Z" fill="#313130"/>
<path d="M30.0756 38.9138L30.8611 38.6718L31.125 34.9702L33.5193 34.02L33.5273 33.6351C32.6366 33.9912 31.2688 34.5496 30.3781 34.9037L30.0756 38.9138Z" fill="#313130"/>
<path d="M71.848 34.9037C70.7976 34.4822 69.7492 34.0597 68.6988 33.6351C68.7454 34.3443 68.7811 35.0555 68.8287 35.7587C68.8645 36.4679 68.9121 37.1781 68.9488 37.8873C70.014 38.2265 71.0872 38.5756 72.1515 38.9149C72.0979 38.2513 72.0464 37.5778 71.9988 36.9133C71.9462 36.2408 71.9016 35.5673 71.848 34.9037ZM57.6891 29.2015C56.6387 28.779 55.5893 28.3574 54.5399 27.9339C54.5479 28.8177 54.5479 29.7014 54.5548 30.5852C54.5548 31.4679 54.5637 32.3427 54.5637 33.2265C55.6359 33.5746 56.6982 33.9198 57.7645 34.261C57.7496 33.4239 57.7417 32.5778 57.7278 31.7327C57.7129 30.8946 57.697 30.0496 57.6891 29.2015ZM62.4084 31.1039C61.36 30.6834 60.3116 30.2598 59.2612 29.8363C59.283 30.6605 59.2979 31.4848 59.3138 32.307C59.3306 33.1362 59.3445 33.9605 59.3654 34.7837C60.4306 35.1229 61.4949 35.4691 62.5611 35.8173C62.5294 35.0327 62.5076 34.2451 62.4848 33.4606C62.463 32.677 62.4322 31.8914 62.4084 31.1039Z" fill="#FCBD00"/>
<path d="M57.7646 34.261L56.7231 33.9356V29.2322L54.541 28.3931V27.9329C55.5904 28.3564 56.6398 28.7779 57.6902 29.2005L57.7646 34.261Z" fill="#313130"/>
<path d="M62.5611 35.8182L61.6992 35.5534L61.5861 31.1743L59.2661 30.2836V29.86C60.2491 30.2439 61.4284 30.7121 62.4074 31.1038L62.5611 35.8182Z" fill="#313130"/>
<path d="M67.3559 37.3655L66.5704 37.1235L66.3819 33.0687L63.9885 32.1254L63.9796 31.7327C64.8802 32.0868 66.2381 32.6452 67.1298 33.0013L67.3559 37.3655Z" fill="#313130"/>
<path d="M72.1506 38.9138L71.365 38.6718L71.1012 34.9702L68.6979 34.02V33.6351C69.5886 33.9912 70.9564 34.5496 71.847 34.9037L72.1506 38.9138Z" fill="#313130"/>
<path d="M43.5162 75.4076L50.8422 79.3046L58.2107 75.3847L50.8868 71.4897L43.5162 75.4076Z" fill="#151616"/>
<path d="M15.0636 44.8481V53.7442H12.7972V48.9554L10.6379 52.5281H10.4108L8.26042 48.9634V53.7442H5.98706V44.8481H8.26141L10.5258 48.647L12.7972 44.8481H15.0636ZM18.7504 51.6067H22.1932V53.7442H16.4691V44.8481H22.1257V46.9707H18.7504V48.2026H21.8083V50.3014H18.7504V51.6067ZM29.3743 44.8481V47.0451H27.1763V53.7442H24.897V47.0451H22.701V44.8481H29.3743ZM34.9922 53.7442L34.6074 52.4607H31.6447L31.2608 53.7442H28.801L31.7369 44.8481H34.5082L37.4401 53.7442H34.9922ZM32.2279 50.5028H34.0251L33.1186 47.4766L32.2279 50.5028ZM37.6732 53.7442V51.6206C38.1483 51.6811 38.4866 51.6127 38.7068 51.4093C38.917 51.2129 39.0321 50.7973 39.0321 50.1715V44.8481H45.3582V53.7442H43.0849V47.0451H41.3045V50.2776C41.3045 51.0027 41.1983 51.6206 40.993 52.1274C40.7837 52.6254 40.503 52.9953 40.141 53.2373C39.777 53.4704 39.4001 53.6301 38.9924 53.7055C38.5858 53.7809 38.1483 53.7967 37.6732 53.7442ZM46.1229 53.7442V51.6206C46.598 51.6811 46.9373 51.6127 47.1565 51.4093C47.3747 51.2129 47.4818 50.7973 47.4818 50.1715V44.8481H53.8089V53.7442H51.5346V47.0451H49.7552V50.2776C49.7552 51.0027 49.648 51.6206 49.4437 52.1274C49.2334 52.6254 48.9547 52.9953 48.5907 53.2373C48.2356 53.4704 47.8508 53.6301 47.4431 53.7055C47.0345 53.7809 46.598 53.7967 46.1229 53.7442ZM62.8399 52.5946C61.9323 53.4853 60.8313 53.9326 59.525 53.9326C58.2247 53.9326 57.1158 53.4883 56.2162 52.5946C55.3126 51.697 54.8663 50.601 54.8663 49.2966C54.8663 47.9904 55.3126 46.8943 56.2162 45.9957C57.1158 45.106 58.2247 44.6587 59.525 44.6587C60.8303 44.6587 61.9333 45.104 62.8399 45.9957C63.7385 46.8943 64.1908 47.9913 64.1908 49.2966C64.1898 50.6029 63.7385 51.6989 62.8399 52.5946ZM57.8101 51.0324C58.2713 51.4857 58.8456 51.7148 59.5241 51.7148C60.2124 51.7148 60.7857 51.4877 61.2449 51.0324C61.6982 50.5791 61.9234 49.9979 61.9234 49.2966C61.9234 48.5954 61.6982 48.0142 61.2449 47.5609C60.7847 47.1076 60.2114 46.8805 59.5241 46.8805C58.8456 46.8805 58.2713 47.1076 57.8101 47.5609C57.3568 48.0142 57.1227 48.5954 57.1227 49.2966C57.1237 49.9979 57.3578 50.5791 57.8101 51.0324ZM68.919 48.1243C69.8236 48.1243 70.5487 48.3821 71.0942 48.888C71.6367 49.4028 71.9095 50.0733 71.9095 50.9184C71.9095 51.7723 71.6367 52.4538 71.0942 52.9646C70.5487 53.4853 69.8236 53.7422 68.919 53.7422H65.2481V44.8481H71.1458V47.0451H67.5215V48.1243H68.919ZM68.8288 51.6573C69.0777 51.6573 69.2741 51.5958 69.4239 51.4758C69.5697 51.3478 69.6451 51.1653 69.6451 50.9174C69.6451 50.6763 69.5697 50.4869 69.4239 50.3589C69.2741 50.2379 69.0787 50.1725 68.8288 50.1725H67.5225V51.6603H68.8288V51.6573ZM78.0025 53.7442L77.6246 52.4607H74.6629L74.2791 53.7442H71.8182L74.7552 44.8481H77.5185L80.4544 53.7442H78.0025ZM75.2461 50.5028H77.0444L76.1368 47.4766L75.2461 50.5028ZM86.112 49.1598C86.9125 49.6051 87.3053 50.2994 87.3053 51.2437C87.3053 52.0511 87.0047 52.7107 86.3937 53.2006C85.7807 53.6906 84.9803 53.9326 83.9765 53.9326C82.2547 53.9326 81.1041 53.2393 80.5308 51.8477L82.4808 50.7299C82.7298 51.4321 83.2356 51.7872 83.9765 51.7872C84.6857 51.7872 85.0329 51.5204 85.0329 51.0007C85.0329 50.5414 84.7522 50.2816 84.1779 50.2369L82.8349 50.2211V48.2502H83.7097C84.3961 48.2502 84.7373 48.0092 84.7373 47.5192C84.7373 47.0292 84.4358 46.7793 83.8248 46.7793C83.2128 46.7793 82.7883 47.0818 82.5542 47.6759L80.6439 46.576C80.9176 45.9719 81.3322 45.5028 81.8916 45.1635C82.4421 44.8223 83.0987 44.6557 83.8605 44.6557C84.7978 44.6557 85.5516 44.8977 86.1418 45.3887C86.724 45.8717 87.0166 46.5204 87.0166 47.3208C87.0176 48.1104 86.7171 48.7154 86.112 49.1598ZM93.6482 53.7442L93.2693 52.4607H90.3106L89.9268 53.7442H87.463L90.3939 44.8481H93.1662L96.1021 53.7442H93.6482ZM90.8928 50.5028H92.6831L91.7845 47.4766L90.8928 50.5028Z" fill="#151616"/>
<path d="M30.6192 59.9881C31.1617 60.3045 31.4424 60.7954 31.4424 61.453C31.4424 62.0283 31.2371 62.4985 30.8453 62.8426C30.4466 63.1908 29.91 63.3634 29.2444 63.3634H26.496V56.8299H29.0709C29.7205 56.8299 30.2432 56.9966 30.635 57.3289C31.0278 57.6621 31.2242 58.1154 31.2242 58.6877C31.2242 59.2332 31.0189 59.6707 30.6192 59.9881ZM29.0252 58.3267H28.1653V59.3523H29.0252C29.1691 59.3523 29.299 59.3076 29.4031 59.2184C29.5023 59.1251 29.5529 58.9962 29.5529 58.8375C29.5529 58.6818 29.5013 58.5518 29.4031 58.4596C29.3049 58.3723 29.177 58.3267 29.0252 58.3267ZM29.2008 61.8686C29.3664 61.8686 29.5013 61.8131 29.6084 61.7169C29.7116 61.6137 29.7671 61.4828 29.7671 61.3181C29.7671 61.1515 29.7126 61.0146 29.6084 60.9184C29.5023 60.8192 29.3664 60.7687 29.2008 60.7687H28.1663V61.8696H29.2008V61.8686ZM37.717 62.5183C37.0534 63.1749 36.243 63.5003 35.2859 63.5003C34.3268 63.5003 33.5194 63.1749 32.8528 62.5183C32.1903 61.8617 31.859 61.0533 31.859 60.0952C31.859 59.138 32.1903 58.3376 32.8528 57.678C33.5184 57.0204 34.3268 56.6881 35.2859 56.6881C36.243 56.6881 37.0534 57.0194 37.717 57.678C38.3815 58.3346 38.7068 59.136 38.7068 60.0952C38.7068 61.0543 38.3825 61.8617 37.717 62.5183ZM34.0242 61.3697C34.3575 61.701 34.78 61.8676 35.2859 61.8676C35.7917 61.8676 36.2083 61.701 36.5475 61.3697C36.8778 61.0384 37.0435 60.6139 37.0435 60.0952C37.0435 59.5794 36.8778 59.1589 36.5475 58.8266C36.2083 58.4953 35.7908 58.3287 35.2859 58.3287C34.781 58.3287 34.3575 58.4953 34.0242 58.8266C33.685 59.1589 33.5184 59.5824 33.5184 60.0952C33.5194 60.6159 33.685 61.0384 34.0242 61.3697ZM38.691 63.3634V61.8081C39.0391 61.8458 39.294 61.8002 39.4527 61.6494C39.6124 61.5056 39.6888 61.2031 39.6888 60.7439V56.8339H44.3397V63.3663H42.6644V58.4507H41.3581V60.8222C41.3581 61.3519 41.2827 61.8032 41.131 62.1741C40.9802 62.5441 40.7679 62.8149 40.5031 62.9964C40.2403 63.171 39.9596 63.283 39.658 63.3366C39.3645 63.3941 39.0401 63.3991 38.691 63.3634ZM50.6896 63.3634H48.8249L47.7983 61.6266L46.7727 63.3634H44.8991L46.8689 60.0337L44.9744 56.8309H46.8481L47.7983 58.4497L48.7495 56.8309H50.6301L48.7336 60.0406L50.6896 63.3634ZM56.4503 62.5183C55.7947 63.1749 54.9794 63.5003 54.0203 63.5003C53.0671 63.5003 52.2538 63.1749 51.5892 62.5183C50.9306 61.8617 50.5993 61.0533 50.5993 60.0952C50.5993 59.138 50.9306 58.3376 51.5892 57.678C52.2528 57.0204 53.0681 56.6881 54.0203 56.6881C54.9794 56.6881 55.7947 57.0194 56.4503 57.678C57.1149 58.3346 57.4472 59.136 57.4472 60.0952C57.4482 61.0533 57.1159 61.8617 56.4503 62.5183ZM52.7666 61.3697C53.0978 61.701 53.5233 61.8676 54.0213 61.8676C54.5251 61.8676 54.9487 61.701 55.2819 61.3697C55.6221 61.0384 55.7888 60.6139 55.7888 60.0952C55.7888 59.5794 55.6231 59.1589 55.2819 58.8266C54.9497 58.4953 54.5251 58.3287 54.0213 58.3287C53.5233 58.3287 53.0988 58.4953 52.7666 58.8266C52.4263 59.1589 52.2597 59.5824 52.2597 60.0952C52.2597 60.6159 52.4263 61.0384 52.7666 61.3697ZM61.7301 56.8299H63.3914V63.3634H61.7301V60.849H59.8961V63.3634H58.2248V56.8299H59.8961V59.2481H61.7301V56.8299ZM69.8386 63.3634H67.9729L66.1022 60.4403V63.3634H64.424V56.8299H66.1022V59.5735L67.8836 56.8299H69.7473L67.6713 60.0009L69.8386 63.3634ZM74.536 63.3634L74.2563 62.4201H72.0822L71.8044 63.3634H69.9893L72.1437 56.8299H74.181L76.3343 63.3634H74.536ZM72.5126 60.9849H73.8269L73.1623 58.7641L72.5126 60.9849Z" fill="#151616"/>
<path d="M47.3062 69.5873C46.725 69.5873 46.234 69.3899 45.8492 69.0031C45.4653 68.6192 45.2749 68.1352 45.2749 67.5688C45.2749 66.9955 45.4653 66.5194 45.8492 66.1277C46.234 65.7418 46.724 65.5524 47.3062 65.5524C47.6623 65.5524 47.9877 65.6387 48.2803 65.8033C48.5818 65.9699 48.8169 66.1961 48.9825 66.4768L48.4241 66.8011C48.317 66.6147 48.1672 66.451 47.9718 66.3399C47.7744 66.2268 47.5562 66.1733 47.3062 66.1733C46.8916 66.1733 46.5594 66.3022 46.3005 66.5661C46.0456 66.8319 45.9166 67.1632 45.9166 67.5718C45.9166 67.9696 46.0456 68.3028 46.3005 68.5696C46.5584 68.8335 46.8916 68.9624 47.3062 68.9624C47.5552 68.9624 47.7744 68.9088 47.9797 68.7958C48.1751 68.6827 48.3269 68.5319 48.4251 68.3346L48.9845 68.651C48.8179 68.9376 48.5907 69.1647 48.2902 69.3314C47.9936 69.502 47.6633 69.5873 47.3062 69.5873ZM52.3727 65.6218V69.5099H51.732V66.2328H50.147V69.5099H49.5122V65.6218H52.3727ZM54.6242 67.1235C54.9793 67.1235 55.2818 67.2346 55.5149 67.4637C55.757 67.6908 55.87 67.9696 55.87 68.3157C55.87 68.6639 55.756 68.9436 55.5149 69.1677C55.2818 69.3949 54.9793 69.5089 54.6242 69.5089H53.1513V65.6208H55.5387V66.2298H53.7881V67.1195L54.6242 67.1235ZM54.6242 68.9148C54.7978 68.9148 54.9406 68.8602 55.0626 68.7472C55.1757 68.642 55.2362 68.4992 55.2362 68.3157C55.2362 68.1332 55.1747 67.9924 55.0626 67.8842C54.9416 67.7811 54.7978 67.7186 54.6242 67.7186H53.7871V68.9118L54.6242 68.9148Z" fill="#151616"/>
</svg>
